<?xml version="1.0" encoding="UTF-8"?>
<svg width="451px" height="251px" viewBox="0 0 451 251" version="1.1" xmlns="http://www.w3.org/2000/svg" xmlns:xlink="http://www.w3.org/1999/xlink">
    <title>Group 6</title>
    <g id="Site" stroke="none" stroke-width="1" fill="none" fill-rule="evenodd">
        <g id="Apple-TV-Copy-5" transform="translate(-1322.000000, -44.000000)">
            <g id="Group-6" transform="translate(1322.670839, 44.139183)">
                <polygon id="Rectangle-Copy-17" fill="#000000" points="1.2490009e-14 4.30211422e-13 449.940307 0.107345539 450 250 0.0596933293 249.892654"></polygon>
                <g id="Logo" transform="translate(175.000000, 64.000000)" fill="#FFFFFF">
                    <path d="M1.4745422,120.238466 C1.26262899,120.238466 1.09310096,120.169125 0.965953035,120.030441 C0.838805108,119.891757 0.775232099,119.715737 0.775232099,119.502377 L0.775232099,98.603841 C0.775232099,98.3691447 0.838805108,98.1824572 0.965953035,98.043773 C1.09310096,97.9050889 1.26262899,97.8357478 1.4745422,97.8357478 L14.3799922,97.8357478 C14.6130968,97.8357478 14.7985181,97.9050889 14.9362616,98.043773 C15.0740052,98.1824572 15.142876,98.3691447 15.142876,98.603841 L15.142876,99.7879847 C15.142876,100.001345 15.0740052,100.177365 14.9362616,100.316049 C14.7985181,100.454733 14.6130968,100.524074 14.3799922,100.524074 L3.73140662,100.524074 L3.73140662,108.108994 L13.7442558,108.108994 C13.9773603,108.108994 14.1627816,108.178335 14.3005252,108.31702 C14.4382688,108.455704 14.5071395,108.631723 14.5071395,108.845084 L14.5071395,110.061231 C14.5071395,110.274591 14.432971,110.450611 14.2846318,110.589295 C14.1362925,110.727979 13.956169,110.797321 13.7442558,110.797321 L3.73140662,110.797321 L3.73140662,119.502377 C3.73140662,119.715737 3.6572381,119.891757 3.50889886,120.030441 C3.36055961,120.169125 3.18043608,120.238466 2.96852287,120.238466 L1.4745422,120.238466 Z M24.4799609,120.238466 C24.2680476,120.238466 24.0985196,120.169125 23.9713717,120.030441 C23.8442238,119.891757 23.7806507,119.715737 23.7806507,119.502377 L23.7806507,98.5718371 C23.7806507,98.3584768 23.8442238,98.1824572 23.9713717,98.043773 C24.0985196,97.9050889 24.2680476,97.8357478 24.4799609,97.8357478 L26.069302,97.8357478 C26.3024065,97.8357478 26.48253,97.8997549 26.609678,98.0277711 C26.7368259,98.1557873 26.8003989,98.3371408 26.8003989,98.5718371 L26.8003989,119.502377 C26.8003989,119.715737 26.7315282,119.891757 26.5937846,120.030441 C26.456041,120.169125 26.2812152,120.238466 26.069302,120.238466 L24.4799609,120.238466 Z M37.5678908,120.238466 C37.3559776,120.238466 37.1864496,120.169125 37.0593016,120.030441 C36.9321537,119.891757 36.8685807,119.715737 36.8685807,119.502377 L36.8685807,98.603841 C36.8685807,98.3691447 36.9321537,98.1824572 37.0593016,98.043773 C37.1864496,97.9050889 37.3559776,97.8357478 37.5678908,97.8357478 L50.4733408,97.8357478 C50.7064454,97.8357478 50.8918667,97.9050889 51.0296102,98.043773 C51.1673538,98.1824572 51.2362246,98.3691447 51.2362246,98.603841 L51.2362246,99.7879847 C51.2362246,100.001345 51.1673538,100.177365 51.0296102,100.316049 C50.8918667,100.454733 50.7064454,100.524074 50.4733408,100.524074 L39.8247552,100.524074 L39.8247552,108.108994 L49.8376044,108.108994 C50.0707089,108.108994 50.2561302,108.178335 50.3938738,108.31702 C50.5316174,108.455704 50.6004881,108.631723 50.6004881,108.845084 L50.6004881,110.061231 C50.6004881,110.274591 50.5263196,110.450611 50.3779804,110.589295 C50.2296411,110.727979 50.0495176,110.797321 49.8376044,110.797321 L39.8247552,110.797321 L39.8247552,119.502377 C39.8247552,119.715737 39.7505867,119.891757 39.6022475,120.030441 C39.4539082,120.169125 39.2737847,120.238466 39.0618715,120.238466 L37.5678908,120.238466 Z M65.4684802,120.238466 C65.2565669,120.238466 65.0817412,120.169125 64.9439976,120.030441 C64.806254,119.891757 64.7373832,119.715737 64.7373832,119.502377 L64.7373832,100.588082 L58.6025264,100.588082 C58.3906132,100.588082 58.2157875,100.518741 58.0780439,100.380057 C57.9403003,100.241372 57.8714295,100.065353 57.8714295,99.8519925 L57.8714295,98.603841 C57.8714295,98.3691447 57.9403003,98.1824572 58.0780439,98.043773 C58.2157875,97.9050889 58.3906132,97.8357478 58.6025264,97.8357478 L73.8602014,97.8357478 C74.0933059,97.8357478 74.2734294,97.9050889 74.4005774,98.043773 C74.5277253,98.1824572 74.5912983,98.3691447 74.5912983,98.603841 L74.5912983,99.8519925 C74.5912983,100.065353 74.5224275,100.241372 74.3846839,100.380057 C74.2469404,100.518741 74.0721146,100.588082 73.8602014,100.588082 L67.7571314,100.588082 L67.7571314,119.502377 C67.7571314,119.715737 67.6829629,119.891757 67.5346236,120.030441 C67.3862844,120.169125 67.2061609,120.238466 66.9942476,120.238466 L65.4684802,120.238466 Z M89.3639298,120.238466 C89.1520166,120.238466 88.9771909,120.169125 88.8394473,120.030441 C88.7017037,119.891757 88.6328329,119.715737 88.6328329,119.502377 L88.6328329,111.917456 L80.9722086,98.891876 C80.9086347,98.7638598 80.8768482,98.6251777 80.8768482,98.4758255 C80.8768482,98.3051372 80.9404212,98.1557873 81.0675691,98.0277711 C81.194717,97.8997549 81.3430541,97.8357478 81.5125846,97.8357478 L83.0383521,97.8357478 C83.4197959,97.8357478 83.6952789,98.0171013 83.8648095,98.3798138 L90.1586004,108.845084 L96.4206045,98.3798138 C96.6325177,98.0171013 96.9080008,97.8357478 97.2470619,97.8357478 L98.7728294,97.8357478 C98.94236,97.8357478 99.0959947,97.8997549 99.2337383,98.0277711 C99.3714819,98.1557873 99.4403527,98.3051372 99.4403527,98.4758255 C99.4403527,98.5825056 99.3979707,98.7211877 99.3132054,98.891876 L91.6525811,111.917456 L91.6525811,119.502377 C91.6525811,119.715737 91.5837103,119.891757 91.4459667,120.030441 C91.3082231,120.169125 91.1228019,120.238466 90.8896973,120.238466 L89.3639298,120.238466 Z" id="Combined-Shape"></path>
                    <path d="M70.3563431,75.4678754 C68.2403581,77.3440166 65.6633516,78.2807145 62.6269681,78.2807145 C59.5867473,78.2807145 57.0245418,77.3440166 54.935966,75.4678754 C52.8484866,73.5911851 51.8031023,70.9957741 51.8031023,67.6788971 C51.8031023,64.4174752 52.8484866,61.84787 54.935966,59.9722779 C57.0245418,58.0966858 59.5867473,57.1588897 62.6269681,57.1588897 C65.7187181,57.1588897 68.308881,58.0966858 70.3974568,59.9722779 C72.4860325,61.84787 73.5303204,64.4174752 73.5303204,67.6788971 C73.5303204,70.9957741 72.4728761,73.5911851 70.3563431,75.4678754 M85.1665929,67.515826 C85.1665929,63.9277128 84.2582543,60.6651928 82.4415771,57.729364 C80.6232553,54.7935352 78.1816499,52.4693603 75.1173091,50.7568393 C72.0529683,49.0437692 68.7024761,48.1614283 65.0680253,48.1059731 C64.0752666,48.1059731 63.752387,48.2657499 63.6449432,48.3612865 L63.5884804,48.4321153 C63.5884804,48.4321153 63.5999923,48.401917 63.6449432,48.3612865 L76.149537,32.6921857 C76.3666173,32.3660435 76.4762538,32.0124483 76.4762538,31.6330472 C76.4762538,31.1432849 76.3255036,30.7221551 76.0272923,30.3680108 C75.7301773,30.0155137 75.336034,29.838167 74.8470551,29.838167 L67.1182283,29.838167 C66.4121691,29.838167 65.8689201,29.9743341 65.4901259,30.2466684 C65.1096872,30.5184535 64.7034839,30.9258567 64.2693232,31.4683289 L49.4711334,48.3085766 L33.46146,48.3085766 L54.3154232,27.2597769 C57.2410739,24.3294387 57.376475,20.9801671 57.376475,17.3289119 C57.376475,14.0054461 56.6145012,11.0344775 55.0911017,8.41930026 C53.5666058,5.80412306 51.2823288,3.74734083 48.2349816,2.2484045 C45.1865381,0.749468166 41.4874018,0 37.1342836,0 C32.9434275,0 29.2991094,0.857633168 26.196944,2.57509575 C23.0953267,4.29091115 20.7134732,6.55249311 19.0552208,9.3587435 C17.3942275,12.165543 16.5111053,15.1765931 16.4031133,18.3913448 C16.4031133,18.8811072 16.5659235,19.2901576 16.8920922,19.6168488 C17.2182608,19.9446382 17.6266569,20.1077093 18.1167322,20.1077093 L25.4623793,20.1077093 C26.0061764,20.1077093 26.5094081,19.9578156 26.9726224,19.6585774 C27.433644,19.3593392 27.7477526,18.8811072 27.9116592,18.2277247 C28.2915498,15.6663554 29.2574475,13.5832183 30.8082562,11.9750188 C32.359613,10.3673684 34.4947843,9.56299417 37.216511,9.56299417 C39.9908632,9.56299417 42.0580599,10.2987358 43.4191973,11.7702191 C44.778142,13.2411533 45.459533,15.2578541 45.459533,17.8186743 C45.459533,19.4005188 45.1432317,21.1542194 43.9092726,22.6416255 C41.6578866,25.3556336 17.5449777,48.1449565 17.5449777,48.1449565 C16.3477468,49.3441055 15.504642,50.4619936 15.504642,51.9878339 L15.504642,56.2375655 C15.504642,56.782783 15.6948613,57.2461904 16.0758483,57.6272387 C16.4557388,58.0093851 16.9184049,58.1988111 17.4632985,58.1988111 L42.4527514,58.1988111 C40.8208117,61.5475337 40.0045678,64.7084775 40.0045678,67.6788971 C40.0045678,71.4855365 40.9403155,74.9105785 42.811811,77.9545723 C44.6833064,81.0002133 47.3408958,83.3935699 50.7873199,85.1318968 C54.2310031,86.872969 58.2321881,87.7415834 62.7892302,87.7415834 C67.2909058,87.7415834 71.2383689,86.8323385 74.6288784,85.0094562 C78.0193879,83.1887701 80.6232553,80.7416056 82.4415771,77.6701588 C84.2582543,74.5987119 85.1665929,71.2137513 85.1665929,67.515826" id="Fill-1"></path>
                </g>
            </g>
        </g>
    </g>
</svg>