<?xml version="1.0" encoding="UTF-8"?>
<svg width="451px" height="251px" viewBox="0 0 451 251" version="1.1" xmlns="http://www.w3.org/2000/svg" xmlns:xlink="http://www.w3.org/1999/xlink">
    <title>Group 7</title>
    <defs>
        <polygon id="path-1" points="0.0860454089 0.0527401378 14.7696463 0.0527401378 14.7696463 16.8005633 0.0860454089 16.8005633"></polygon>
        <polygon id="path-3" points="0.0474895612 0.146157024 16.9203667 0.146157024 16.9203667 25.0781711 0.0474895612 25.0781711"></polygon>
        <polygon id="path-5" points="0 142.792035 198.089249 142.792035 198.089249 0 0 0"></polygon>
    </defs>
    <g id="Site" stroke="none" stroke-width="1" fill="none" fill-rule="evenodd">
        <g id="Apple-TV-Copy-5" transform="translate(-639.000000, -142.000000)">
            <g id="Group-7" transform="translate(639.023457, 142.408413)">
                <polygon id="Rectangle-Copy-18" fill="#102535" points="3.12250226e-15 -2.08166817e-13 449.862794 0.247411338 450 250 0.137205755 249.752589"></polygon>
                <g id="Group-92" transform="translate(126.000000, 54.000000)">
                    <path d="M7.86411876,105.394516 C7.44553699,105.324308 7.05837642,105.278091 6.67121584,105.278091 C6.28626027,105.278091 5.89707845,105.324308 5.47849668,105.394516 L5.27141079,105.430678 L5.28170077,105.229757 C5.38221185,103.170799 5.48051792,101.087322 5.48051792,99.0361259 L5.48051792,94.9138004 C5.48051792,93.3166616 5.45754922,91.7175825 5.41142805,90.1183269 C3.72074725,90.124501 1.59862221,90.2188757 0.2574333,90.3795775 L0,90.4076253 L0.0731323722,90.1726586 C0.146448494,89.9477467 0.192385914,89.696551 0.192385914,89.4555867 C0.192385914,89.2363197 0.148469741,89.0114078 0.0731323722,88.7543909 L0.0145162246,88.5453552 L0.242549576,88.5472956 C2.38341709,88.621737 4.52851084,88.671835 6.67121584,88.671835 C8.8163096,88.671835 10.9571771,88.621737 13.1019034,88.5472956 L13.3280992,88.5412979 L13.2694831,88.7543909 C13.1961669,89.0114078 13.1502295,89.2363197 13.1502295,89.4776368 C13.1502295,89.696551 13.1961669,89.9477467 13.2694831,90.1765394 L13.3427992,90.4076253 L13.0873871,90.3795775 C11.7458307,90.2188757 9.61984694,90.124501 7.93100364,90.1183269 C7.88506622,91.7175825 7.85989252,93.3166616 7.85989252,94.9138004 L7.85989252,99.0361259 C7.85989252,101.087322 7.96242484,103.170799 8.06073092,105.229757 L8.0691834,105.430678 L7.86411876,105.394516 Z" id="Fill-1" fill="#FFFFFF"></path>
                    <path d="M30.589275,105.906363 C30.1815564,105.836246 29.8021293,105.79009 29.4269996,105.79009 C29.0495422,105.79009 28.6702941,105.836246 28.2625756,105.906363 L28.0627451,105.942478 L28.0727725,105.741819 C28.170718,103.685545 28.2645452,101.604784 28.2645452,99.5562629 L28.2645452,97.5579502 C26.6188092,97.5380428 24.9956346,97.5160214 23.3498986,97.5160214 C21.7021929,97.5160214 20.0770487,97.5380428 18.429343,97.5579502 L18.429343,99.5562629 C18.429343,101.604784 18.5271095,103.685545 18.625055,105.741819 L18.6332918,105.942478 L18.4332823,105.906363 C18.0255638,105.836246 17.6461366,105.79009 17.2688582,105.79009 C16.8956982,105.79009 16.5164501,105.836246 16.1085525,105.906363 L15.9087221,105.942478 L15.9169588,105.741819 C16.0147253,103.685545 16.1107012,101.604784 16.1107012,99.5562629 L16.1107012,95.4393123 C16.1107012,93.386915 16.0147253,91.3102059 15.9169588,89.2537566 L15.9087221,89.0530973 L16.1085525,89.0870984 C16.5164501,89.1593287 16.8956982,89.2054856 17.2688582,89.2054856 C17.6461366,89.2054856 18.0255638,89.1593287 18.4332823,89.0870984 L18.6332918,89.0530973 L18.625055,89.2537566 C18.5271095,91.3102059 18.429343,93.3907907 18.429343,95.4393123 L18.429343,96.1175724 C20.0790183,96.1415317 21.7043416,96.1876886 23.3498986,96.1876886 C24.9934859,96.1876886 26.6166605,96.1415317 28.2645452,96.1175724 L28.2645452,95.4393123 C28.2645452,93.3907907 28.170718,91.3102059 28.0727725,89.2537566 L28.0627451,89.0530973 L28.2625756,89.0870984 C28.6702941,89.1593287 29.0495422,89.2054856 29.4269996,89.2054856 C29.8021293,89.2054856 30.1815564,89.1593287 30.589275,89.0870984 L30.7910751,89.0530973 L30.778899,89.2537566 C30.6811325,91.3102059 30.5853357,93.3907907 30.5853357,95.4393123 L30.5853357,99.5562629 C30.5853357,101.604784 30.6811325,103.685545 30.778899,105.741819 L30.7910751,105.942478 L30.589275,105.906363 Z" id="Fill-3" fill="#FFFFFF"></path>
                    <path d="M44.9388705,105.41867 C43.4987754,105.348387 42.032022,105.297882 40.5447343,105.297882 C39.0576268,105.297882 37.5928547,105.348387 36.1035857,105.41867 L35.9229209,105.424674 L35.9312066,105.251791 C36.0297347,103.164128 36.1280826,101.078759 36.1280826,99.0253543 L36.1280826,94.9003552 C36.1280826,92.8451842 36.0297347,90.7594628 35.9312066,88.7242467 L35.9229209,88.5451829 L36.1035857,88.5511871 C37.5681777,88.6276511 39.0082727,88.6739181 40.4730448,88.6739181 C41.9334939,88.6739181 43.373769,88.6276511 44.8156653,88.5511871 L45.0269513,88.5412979 L44.9860631,88.7463206 C44.9388705,88.9774788 44.9141934,89.202986 44.9141934,89.4362633 C44.9141934,89.6615939 44.9388705,89.8927521 44.9860631,90.1219678 L45.0269513,90.3291095 L44.813684,90.3130397 C42.7889049,90.1722963 41.6074686,90.00736 38.5550796,90.0013558 C38.5242783,90.9687237 38.4605142,91.7771592 38.4605142,92.8873895 C38.4605142,94.0297594 38.4810484,95.2362321 38.4830298,95.891916 C41.2627104,95.8859119 42.833936,95.7674191 44.2475528,95.6506921 L44.4669444,95.6344457 L44.4238946,95.8456491 C44.376702,96.0709797 44.352025,96.3263309 44.352025,96.5557232 C44.352025,96.7847623 44.376702,97.0141545 44.4238946,97.2435468 L44.4669444,97.4565161 L44.2453913,97.4344421 C42.6433644,97.2735673 39.746783,97.2212963 38.4769056,97.2174113 C38.4583527,97.7542492 38.4605142,98.4381878 38.4605142,100.533622 C38.4605142,102.207002 38.4810484,103.337187 38.5015826,103.970621 C40.6535295,103.970621 43.4413157,103.940423 44.9161748,103.661056 L45.1602434,103.614612 L45.1071067,103.85407 C45.0618955,104.051146 45.0372184,104.356826 45.0372184,104.561849 C45.0372184,104.765105 45.0599141,105.022576 45.1071067,105.223713 L45.1521378,105.430678 L44.9388705,105.41867 Z" id="Fill-5" fill="#FFFFFF"></path>
                    <path d="M69.7498123,89.3051906 L69.7148181,89.0748832 L69.9499868,89.1262355 C70.2618528,89.196953 70.5943889,89.2422537 70.9247493,89.2422537 C71.1477697,89.2422537 71.4039712,89.196953 71.608316,89.1319413 L71.8458418,89.0530973 L71.8251716,89.2934331 C71.6289861,91.4713248 71.4308062,95.6026795 71.383301,99.0249572 C71.3501199,103.231006 68.7215612,105.942478 64.2384879,105.942478 L64.2033123,105.942478 C61.7419283,105.942478 59.9311111,105.396968 58.7374985,104.246987 C57.5438859,103.095104 56.9966699,101.368317 56.9966699,99.0702579 C56.9988457,97.607149 57.1206911,96.52218 57.1206911,95.3604418 C57.1206911,92.7827974 57.0215104,90.6502064 56.9718294,89.2873815 L56.9634888,89.0907903 L57.1660204,89.1262355 C57.5522265,89.196953 58.037432,89.2422537 58.417292,89.2422537 C58.7458391,89.2422537 59.1318639,89.196953 59.4373838,89.1262355 L59.66258,89.0786871 L59.6377395,89.2953351 C59.4932296,90.6718193 59.3465438,93.8637896 59.3465438,97.3353448 C59.3693898,100.556882 59.3217033,104.518791 64.6721992,104.524497 C67.3132688,104.514987 68.5707051,103.374689 69.2355961,101.844666 C69.8923278,100.314644 69.8984926,98.3888455 69.8964981,96.9100024 C69.8964981,92.4518602 69.8923278,90.1894187 69.7498123,89.3051906" id="Fill-7" fill="#FFFFFF"></path>
                    <path d="M90.8465038,105.942478 L90.5068643,105.942478 L90.5068643,105.78241 L90.633113,105.680325 L90.5068643,105.78241 L90.5068643,105.942478 L90.4316865,105.942478 L90.3827584,105.886603 C86.7811868,101.710257 82.4819436,97.2378467 78.4168052,92.9815542 C78.3903769,93.8802883 78.3537701,95.244818 78.3537701,97.4318257 C78.3537701,99.4749304 78.4493049,104.523655 78.5693037,105.452084 L78.5998391,105.690165 L78.3639486,105.626208 C78.1118082,105.55821 77.8330609,105.512351 77.5605636,105.512351 C77.2880663,105.512351 77.0073548,105.55821 76.7003936,105.628316 L76.464503,105.680325 L76.5030741,105.444177 C76.6941436,104.353748 77.0114619,98.2304076 77.0073548,95.092657 C77.0073548,92.0891454 77.0073548,89.7738727 76.9403912,88.7133137 L76.9239628,88.5412979 L77.0989611,88.5412979 L77.5585994,88.5412979 L77.6053846,88.5934825 C81.4367753,92.6854902 86.5901173,98.2144184 89.5918733,101.21793 C89.5918733,97.0558157 89.5856234,92.5754985 89.4004466,89.0215013 L89.3883039,88.7995852 L89.6040161,88.857568 C89.8581207,88.9255661 90.1366894,88.971601 90.3849012,88.971601 C90.633113,88.971601 90.8586465,88.9274988 91.1190011,88.857568 L91.346856,88.7955439 L91.3245348,89.027651 C91.1779291,90.4245106 90.93811,95.1508155 90.93811,97.0016983 C90.93811,99.4350452 90.9847167,104.70797 91.0091807,105.776436 L91.0113236,105.942478 L90.8465038,105.942478 Z" id="Fill-9" fill="#FFFFFF"></path>
                    <path d="M98.8187912,105.906363 C98.3580178,105.836246 97.9314432,105.792204 97.5052734,105.792204 C97.0811271,105.792204 96.6525289,105.836246 96.1915532,105.906363 L95.9655172,105.94054 L95.9748258,105.741819 C96.0855166,103.685545 96.1962075,101.606899 96.1962075,99.5523871 L96.1962075,95.4393123 C96.1962075,93.3907907 96.0855166,91.3102059 95.9748258,89.2518187 L95.9655172,89.0530973 L96.1915532,89.0870984 C96.6525289,89.1593287 97.0811271,89.2054856 97.5052734,89.2054856 C97.9314432,89.2054856 98.3580178,89.1593287 98.8187912,89.0870984 L99.0446247,89.0530973 L99.0353162,89.2518187 C98.9246254,91.3102059 98.8143392,93.3907907 98.8143392,95.4393123 L98.8143392,99.5523871 C98.8143392,101.606899 98.9246254,103.685545 99.0353162,105.741819 L99.0446247,105.942478 L98.8187912,105.906363 Z" id="Fill-11" fill="#FFFFFF"></path>
                    <path d="M102.636917,89.0530973 C103.049134,89.126871 103.489836,89.1726736 103.901874,89.1726736 C104.312121,89.1726736 104.752643,89.126871 105.166831,89.0530973 C106.601082,93.2540012 108.667902,98.2852959 110.712148,103.081284 C112.487137,99.2347386 115.215009,92.1650528 116.231131,89.0530973 C116.524753,89.126871 116.841127,89.1726736 117.132778,89.1726736 C117.426758,89.1726736 117.740982,89.126871 118.032454,89.0530973 C115.50254,94.5104263 113.168612,99.9695035 111.028522,105.430678 C110.761235,105.358828 110.491977,105.311277 110.22254,105.311277 C109.955431,105.311277 109.641207,105.358828 109.422827,105.430678 C107.963854,101.514555 104.997537,94.5104263 102.636917,89.0530973" id="Fill-13" fill="#FFFFFF"></path>
                    <path d="M130.640563,105.418667 C129.202938,105.348368 127.736499,105.297851 126.249531,105.297851 C124.760581,105.297851 123.296303,105.348368 121.807173,105.418667 L121.624746,105.428736 L121.634831,105.25175 C121.735499,103.163606 121.834006,101.077758 121.834006,99.0238805 L121.834006,94.8979324 C121.834006,92.8422885 121.735499,90.7560873 121.634831,88.7204028 L121.628708,88.5412979 L121.807173,88.5534855 C123.273612,88.6237851 124.713399,88.6700627 126.177856,88.6700627 C127.640153,88.6700627 129.07976,88.6237851 130.519546,88.5534855 L130.726825,88.5412979 L130.687746,88.7424818 C130.640563,88.9736932 130.618053,89.1992523 130.618053,89.4325833 C130.618053,89.6579658 130.640563,89.8891772 130.687746,90.1184456 L130.726825,90.325635 L130.515584,90.3095614 C128.491059,90.1687857 127.307715,90.0038114 124.258142,89.9978059 C124.229328,90.9653963 124.161616,91.7740178 124.161616,92.8845036 C124.161616,94.0271363 124.182325,95.2338865 124.188448,95.8897213 C126.963211,95.8837159 128.540402,95.768905 129.949394,95.6503849 L130.166758,95.6321918 L130.123717,95.8395578 C130.078696,96.0688263 130.056005,96.3222933 130.056005,96.5536812 C130.056005,96.782773 130.078696,97.0122181 130.123717,97.2416631 L130.17108,97.4546814 L129.947233,97.4326024 C128.343569,97.2716906 125.447608,97.22347 124.180164,97.2155216 C124.161616,97.752483 124.161616,98.436579 124.161616,100.532495 C124.161616,102.210146 124.182325,103.336705 124.206817,103.970285 C126.35416,103.968342 129.145491,103.940081 130.618053,103.660649 L130.862069,103.614194 L130.806783,103.853707 C130.765723,104.050829 130.73907,104.356579 130.73907,104.563768 C130.73907,104.764952 130.763742,105.022482 130.806783,105.223666 L130.855946,105.430678 L130.640563,105.418667 Z" id="Fill-15" fill="#FFFFFF"></path>
                    <path d="M148.916625,104.54756 L148.823529,104.473579 L148.866072,104.365683 C149.14981,103.639054 149.216739,103.186733 149.316065,102.282093 L149.328348,102.137997 L149.474132,102.137997 L149.766058,102.137997 L149.766058,102.29826 L149.766058,102.137997 L149.865384,102.137997 L149.912021,102.230078 C150.43108,103.316771 151.586501,104.621717 153.585481,104.621717 C155.649076,104.615742 156.869468,103.15686 156.875521,101.319638 C156.883709,99.2501064 155.099579,98.6598407 153.173758,97.8673138 C151.270366,97.1009702 149.257146,96.1040732 149.265334,93.2084504 C149.271386,90.4686971 151.391765,88.5434366 154.672014,88.5412979 C156.216729,88.5374619 157.355952,88.9077178 158.349212,89.6960273 L158.452632,89.7782674 L158.389975,89.8961799 C158.108195,90.4224811 157.946034,90.9547569 157.755214,91.8553557 L157.724776,91.9855691 L157.595189,91.9855691 L157.195927,91.9855691 L157.155164,91.8815389 C156.814643,91.0129224 156.143748,89.7422434 154.428684,89.7422434 C152.691369,89.7480424 151.481123,90.8828847 151.47507,92.5398108 C151.470976,94.6472998 153.250834,95.2616399 155.178791,96.0241176 C157.074173,96.7667382 159.091309,97.6771777 159.087221,100.413065 C159.079205,103.40481 156.804497,105.936503 153.003587,105.942478 L152.991483,105.942478 C150.956012,105.942478 149.770152,105.224108 148.916625,104.54756" id="Fill-17" fill="#FFFFFF"></path>
                    <path d="M165.535362,105.906367 C165.070038,105.836259 164.644148,105.792221 164.22028,105.792221 C163.796413,105.792221 163.365871,105.836259 162.90985,105.906367 L162.679513,105.94054 L162.688816,105.741842 C162.799434,103.685804 162.90985,101.607396 162.90985,99.5531202 L162.90985,95.4405173 C162.90985,93.3883554 162.799434,91.3118846 162.688816,89.2537336 L162.679513,89.055035 L162.90985,89.0890322 C163.365871,89.1612542 163.796413,89.2074058 164.22028,89.2074058 C164.644148,89.2074058 165.070038,89.1612542 165.535362,89.0890322 L165.758621,89.0530973 L165.751745,89.2537336 C165.634453,91.3118846 165.530913,93.3883554 165.530913,95.4405173 L165.530913,99.5531202 C165.530913,101.607396 165.634453,103.685804 165.751745,105.741842 L165.758621,105.942478 L165.535362,105.906367 Z" id="Fill-19" fill="#FFFFFF"></path>
                    <path d="M177.214487,105.394516 C176.793687,105.324308 176.406345,105.278091 176.019003,105.278091 C175.63589,105.278091 175.248732,105.324308 174.825725,105.394516 L174.618359,105.428738 L174.629021,105.229757 C174.729395,103.170799 174.831976,101.087322 174.831976,99.032245 L174.831976,94.9138004 C174.831976,93.3166616 174.804768,91.7154656 174.760648,90.1183269 C173.066969,90.124501 170.942011,90.2188757 169.602032,90.3795775 L169.350913,90.4116825 L169.420035,90.1726586 C169.490996,89.9477467 169.537138,89.7006083 169.537138,89.4534698 C169.537138,89.2363197 169.490996,89.0114078 169.420035,88.7543909 L169.361208,88.5453552 L169.585303,88.5472956 C171.731402,88.6256178 173.881361,88.671835 176.019003,88.671835 C178.162896,88.671835 180.308995,88.6256178 182.454909,88.5472956 L182.681027,88.5412979 L182.618339,88.7543909 C182.547011,89.0114078 182.503074,89.2345556 182.503074,89.4776368 C182.503074,89.6946106 182.547011,89.9477467 182.618339,90.1726586 L182.693712,90.4116825 L182.440386,90.3795775 C181.098201,90.2188757 178.971222,90.124501 177.281403,90.1183269 C177.233422,91.7175825 177.210443,93.3166616 177.210443,94.9138004 L177.210443,99.032245 C177.210443,101.087322 177.312839,103.170799 177.409353,105.229757 L177.419648,105.430678 L177.214487,105.394516 Z" id="Fill-21" fill="#FFFFFF"></path>
                    <g id="Group-25" transform="translate(183.206897, 89.053097)">
                        <mask id="mask-2" fill="white">
                            <use xlink:href="#path-1"></use>
                        </mask>
                        <g id="Clip-24"></g>
                        <path d="M0.294761334,0.385652463 L0.0860454089,0.0844294909 L0.462278551,0.141888208 C0.896226184,0.211361021 1.36139046,0.25697976 1.78916736,0.25697976 C2.22111858,0.25697976 2.68011212,0.211361021 3.11841557,0.141888208 L3.23402604,0.120123543 L3.29192202,0.227205697 C4.68305904,2.84471145 6.18781011,5.4461984 7.82886176,8.17287571 C9.32108989,5.90639049 11.0490763,2.83269735 12.3327699,0.231036279 L12.3904844,0.114029436 L12.5166214,0.143803499 C12.8307843,0.211361021 13.1407728,0.25697976 13.4447721,0.25697976 C13.7485899,0.25697976 14.056582,0.211361021 14.3643926,0.143803499 L14.7696645,0.0527401378 L14.5402585,0.385652463 C11.433658,4.96650517 9.66646937,7.69892835 8.61218171,9.67394117 C8.60818888,11.9822145 8.68659347,15.1467969 8.80456334,16.5964978 L8.82307554,16.8005633 L8.61218171,16.7648692 C8.19674627,16.6936552 7.81234598,16.6518671 7.42976062,16.6518671 C7.05588687,16.6518671 6.66513436,16.6936552 6.25169534,16.7648692 L6.03680868,16.8005633 L6.05949519,16.5924931 C6.25387324,14.9366373 6.25786607,12.4521572 6.25786607,9.9375548 C5.23679146,8.25227321 1.31583594,1.84910858 0.294761334,0.385652463" id="Fill-23" fill="#FFFFFF" mask="url(#mask-2)"></path>
                    </g>
                    <path d="M5.20468258,127.3759 C3.75865067,129.361125 2.7858688,132.395645 2.71110772,133.742587 C2.66262845,134.6368 3.01050718,135.376295 3.73236887,135.376295 C4.28251094,135.376295 4.90741408,135.145033 5.70226105,134.052388 C6.80236761,132.54855 7.97137511,129.183371 8.02393871,127.834615 C8.04826714,127.045603 7.89856741,126.153022 7.02487503,126.153022 C6.52729657,126.153022 5.92867523,126.384466 5.20468258,127.3759 M9.7429107,128.598777 C9.67010301,130.001585 8.94611036,132.443167 7.09963611,134.382866 C5.55451469,136.012583 4.20561891,136.138643 3.53418987,136.138643 C1.93455147,136.138643 0.890915272,134.940615 1.040615,132.750972 C1.1397045,131.172768 2.06187615,128.700169 3.75865067,127.045603 C5.05711381,125.770851 6.17746446,125.390855 7.20085657,125.390855 C8.97043879,125.390855 9.8420002,126.737616 9.7429107,128.598777" id="Fill-26" fill="#FFFFFF"></path>
                    <g id="Group-30" transform="translate(5.645030, 117.713864)">
                        <mask id="mask-4" fill="white">
                            <use xlink:href="#path-3"></use>
                        </mask>
                        <g id="Clip-29"></g>
                        <path d="M9.73543136,9.21561445 C9.5851547,9.64519089 9.38425104,10.4567133 9.083876,11.5706171 C8.33267101,14.4080588 7.65669347,16.8410022 6.85682237,19.6291897 C6.20918882,21.9076949 5.37883456,23.200213 4.87719933,23.7097148 C4.50355774,24.0631547 3.35054542,25.0781891 1.87469678,25.0781891 C0.522563438,25.0781891 0.0474895612,24.2152475 0.0474895612,23.8351057 C0.0474895612,23.3275885 0.347864601,22.8960274 0.622034816,22.6946804 C0.820977572,22.5425876 1.04844259,22.6185438 1.19658007,22.7953539 C1.79946932,23.4302466 2.55067432,23.8351057 3.10079739,23.8351057 C3.60225435,23.8351057 4.1281335,23.656311 4.70463966,21.7063478 C5.85569108,17.7015985 6.72882873,13.3457547 7.93460723,9.21561445 L5.85569108,9.21561445 C5.60398214,8.98558087 5.70559269,8.50675018 6.03038991,8.27671659 L8.18239435,8.27671659 C8.83608888,5.99803098 9.51010551,4.0192009 10.9861324,2.24604791 C12.2387944,0.752363175 13.5420833,0.146157024 14.9915489,0.146157024 C15.9174527,0.146157024 16.9203667,0.803602028 16.9203667,1.81466729 C16.9203667,2.47427731 16.2443891,3.25891735 15.8443644,3.25891735 C15.6190386,3.25891735 15.519389,3.03104879 15.495145,2.85423867 C15.4179567,1.45924285 14.7175569,1.00494907 14.0922064,1.00494907 C13.5420833,1.00494907 12.8639666,1.51445091 12.2872822,2.37342337 C11.13837,4.07062017 10.636913,5.8684905 9.96289637,8.27671659 L13.0914317,8.27671659 C13.2679131,8.55618485 13.2153252,8.93849164 12.8397227,9.21561445 L9.73543136,9.21561445 Z" id="Fill-28" fill="#FFFFFF" mask="url(#mask-4)"></path>
                    </g>
                    <path d="M32.6722134,121.500256 L28.6410488,130.931768 L36.8180771,130.931768 L32.6722134,121.500256 Z M27.8724387,132.830477 C27.105803,134.579522 25.5725317,137.964031 24.3011479,142.792035 C23.8430691,142.717026 23.4589436,142.563273 22.7289255,142.563273 C22.0014204,142.563273 21.5393927,142.717026 21.040568,142.792035 C24.4564136,135.417429 30.1394976,123.022494 32.8664301,116.178466 C33.1710381,116.21686 33.402052,116.293825 33.8231541,116.293825 C34.1686876,116.293825 34.3607504,116.257386 34.6694868,116.178466 C37.6254588,124.162395 46.10889,142.638105 46.1866126,142.792035 C45.5344966,142.678632 44.8804061,142.563273 43.9217077,142.563273 C42.9240582,142.563273 42.1943991,142.678632 41.466535,142.792035 C40.1213775,138.229232 38.5473601,134.923643 37.5866872,132.830477 L27.8724387,132.830477 Z" id="Fill-31" fill="#FFFFFF"></path>
                    <path d="M65.3015964,120.092717 C62.6342101,118.061007 59.3921342,118.061007 56.3407897,118.061007 C54.5119082,118.061007 54.2074511,118.097761 52.9873054,118.212327 C52.8331161,121.740388 52.7944351,125.650694 52.7944351,129.181086 C52.7944351,136.196867 52.7944351,137.005463 52.9081608,140.801383 C54.2074511,140.952345 55.1575426,141.031949 56.9885632,141.031949 C58.6268917,141.031949 62.2891112,141.031949 64.8814527,139.190287 C68.4279857,136.660331 69.1525864,132.325467 69.1525864,129.256567 C69.1525864,126.379686 68.5030304,122.508465 65.3015964,120.092717 M58.8967676,142.792035 C58.5131659,142.792035 53.8256319,142.639101 52.8331161,142.639101 C51.8037018,142.639101 50.9266942,142.6798 48.7525355,142.792035 C49.0225896,138.920814 49.2113602,136.270376 49.2113602,127.45381 C49.2113602,121.740388 49.1343546,120.284736 48.9049423,116.178466 C51.003878,116.258071 53.0623502,116.294825 55.1575426,116.294825 C61.982515,116.294825 65.6468736,116.294825 69.1893066,119.131187 C72.508388,121.779294 73.3853955,125.460827 73.3853955,128.795075 C73.3853955,138.500201 66.5197813,142.792035 58.8967676,142.792035" id="Fill-33" fill="#FFFFFF"></path>
                    <path d="M90.2622196,127.797161 C90.1838144,128.211674 90.107582,128.551479 90.107582,129.080438 C90.107582,129.498836 90.2231075,129.832636 90.2622196,130.251211 C88.2474035,129.987527 85.923312,129.872904 84.2570643,129.872904 C83.2135319,129.872904 82.0897834,129.912996 81.1206726,129.951321 C81.0813794,131.574579 81.0422673,133.272192 81.0422673,134.899336 C81.0422673,136.8624 81.1206726,139.732729 81.1577929,140.754441 C83.6385138,140.754441 86.7750866,140.754441 91.346856,140.299836 C91.2686318,140.716292 91.1923994,141.056274 91.1923994,141.585233 C91.1923994,142.114191 91.2686318,142.415848 91.346856,142.792035 C89.5650827,142.566853 87.7443785,142.566853 85.9626052,142.566853 C82.98067,142.566853 79.9596228,142.681298 76.9776876,142.792035 C77.2107305,139.962151 77.4044803,137.506158 77.4044803,129.269591 C77.4044803,125.491996 77.3262561,120.39121 77.095205,116.690265 C79.806977,116.917391 82.477464,116.917391 85.1872441,116.917391 C87.16494,116.917391 89.099178,116.879419 91.0768739,116.690265 C90.9964768,117.108487 90.9200633,117.523 90.9200633,118.011691 C90.9200633,118.540649 90.9964768,118.844425 91.0768739,119.220436 C89.6414962,118.955162 88.2866966,118.729803 84.9168999,118.729803 C83.5229882,118.729803 82.8260324,118.729803 81.1577929,118.806277 C81.0813794,120.278707 81.0813794,120.922111 81.0813794,123.150802 C81.0813794,125.606795 81.0813794,126.05928 81.1206726,128.060669 C84.1808319,128.096875 87.2409913,128.137143 90.2622196,127.797161" id="Fill-35" fill="#FFFFFF"></path>
                    <path d="M104.329613,140.718991 C106.309965,140.718991 109.577484,140.568372 111.361055,140.267133 C111.286739,140.604704 111.208063,140.982134 111.208063,141.510536 C111.208063,142.114954 111.286739,142.492737 111.361055,142.792035 C108.83869,142.717784 107.20593,142.567165 102.97013,142.567165 C99.5474399,142.567165 98.576978,142.681628 96.4787018,142.792035 C96.7890461,137.963398 96.8284751,133.966164 96.8284751,129.023063 C96.8284751,123.893186 96.5946267,118.311099 96.5179491,116.690265 C97.1388194,116.800673 97.6435831,116.915136 98.616407,116.915136 C99.6241174,116.915136 100.36491,116.800673 101.064275,116.690265 C100.712503,126.343485 100.712503,128.910539 100.712503,140.642799 C102.58111,140.718991 103.35697,140.718991 104.329613,140.718991" id="Fill-37" fill="#FFFFFF"></path>
                    <path d="M124.021076,121.500256 L119.987124,130.931768 L128.167411,130.931768 L124.021076,121.500256 Z M119.218393,132.830477 C118.451637,134.579522 116.91615,137.964031 115.646541,142.792035 C115.186416,142.717026 114.804205,142.563273 114.074251,142.563273 C113.344298,142.563273 112.886507,142.717026 112.387424,142.792035 C115.799856,135.417429 121.483654,123.022494 124.211194,116.178466 C124.517825,116.21686 124.750849,116.293825 125.172018,116.293825 C125.515451,116.293825 125.709699,116.257386 126.016509,116.178466 C128.972945,124.162395 137.457888,142.638105 137.533469,142.792035 C136.883404,142.678632 136.231186,142.563273 135.272158,142.563273 C134.270402,142.563273 133.542423,142.678632 132.814624,142.792035 C131.47141,138.229232 129.896966,134.923643 128.932013,132.830477 L119.218393,132.830477 Z" id="Fill-39" fill="#FFFFFF"></path>
                    <path d="M142.257678,116.690265 C142.824795,116.838944 143.248644,116.915311 144.204041,116.915311 C145.191036,116.915311 145.65459,116.838944 146.257606,116.690265 C146.044689,121.179539 145.973055,125.668635 145.973055,130.157732 C145.973055,136.946845 146.112519,139.965913 146.223692,142.792035 C145.549207,142.681453 144.806727,142.56699 144.026693,142.56699 C143.248644,142.56699 142.717262,142.681453 142.15213,142.792035 C142.398961,138.684247 142.50633,136.760071 142.50633,129.362488 C142.50633,123.93141 142.50633,123.591901 142.257678,116.690265" id="Fill-41" fill="#FFFFFF"></path>
                    <path d="M170.50523,120.092717 C167.833299,118.061007 164.594784,118.061007 161.545071,118.061007 C159.711606,118.061007 159.407098,118.097761 158.188889,118.212327 C158.034496,121.740388 157.997948,125.650694 157.997948,129.181086 C157.997948,136.196867 157.997948,137.005463 158.113653,140.801383 C159.407098,140.952345 160.361449,141.031949 162.192774,141.031949 C163.829236,141.031949 167.490104,141.031949 170.086977,139.190287 C173.63,136.660331 174.3549,132.325467 174.3549,129.256567 C174.3549,126.379686 173.707197,122.508465 170.50523,120.092717 M164.095234,142.792035 C163.715491,142.792035 159.023433,142.639101 158.034496,142.639101 C157.005088,142.639101 156.127935,142.6798 153.955375,142.792035 C154.221374,138.920814 154.414276,136.270376 154.414276,127.45381 C154.414276,121.740388 154.33708,120.284736 154.107629,116.178466 C156.205131,116.258071 158.266086,116.294825 160.361449,116.294825 C167.189518,116.294825 170.846286,116.294825 174.393587,119.131187 C177.711082,121.779294 178.588235,125.460827 178.588235,128.795075 C178.588235,138.500201 171.727361,142.792035 164.095234,142.792035" id="Fill-43" fill="#FFFFFF"></path>
                    <path d="M196.487593,127.797161 C196.411203,128.211674 196.334993,128.551479 196.334993,129.080438 C196.334993,129.498836 196.44614,129.832636 196.487593,130.251211 C194.475558,129.987527 192.15217,129.872904 190.486426,129.872904 C189.441036,129.872904 188.317447,129.912996 187.352792,129.951321 C187.313511,131.574579 187.276402,133.272192 187.276402,134.899336 C187.276402,136.8624 187.352792,139.732729 187.391893,140.754441 C189.867881,140.754441 193.003506,140.754441 197.576065,140.299836 C197.495511,140.716292 197.419302,141.056274 197.419302,141.585233 C197.419302,142.114191 197.495511,142.415848 197.576065,142.792035 C195.788676,142.566853 193.972323,142.566853 192.19127,142.566853 C189.210236,142.566853 186.188111,142.681298 183.206897,142.792035 C183.442041,139.962151 183.635732,137.506158 183.635732,129.269591 C183.635732,125.491996 183.55536,120.39121 183.324378,116.690265 C186.033339,116.917391 188.705191,116.917391 191.418134,116.917391 C193.391069,116.917391 195.330877,116.879419 197.30182,116.690265 C197.225611,117.108487 197.14922,117.523 197.14922,118.011691 C197.14922,118.540649 197.225611,118.844425 197.30182,119.220436 C195.873031,118.955162 194.514659,118.729803 191.148053,118.729803 C189.750218,118.729803 189.059809,118.729803 187.391893,118.806277 C187.313511,120.278707 187.313511,120.922111 187.313511,123.150802 C187.313511,125.606795 187.313511,126.05928 187.352792,128.060669 C190.414199,128.096875 193.467278,128.137143 196.487593,127.797161" id="Fill-45" fill="#FFFFFF"></path>
                    <mask id="mask-6" fill="white">
                        <use xlink:href="#path-5"></use>
                    </mask>
                    <g id="Clip-48"></g>
                    <polygon id="Fill-47" fill="#FFFFFF" mask="url(#mask-6)" points="0.513184584 111.060472 197.576065 111.060472 197.576065 110.548673 0.513184584 110.548673"></polygon>
                    <path d="M138.430107,96.7378826 C137.864871,96.7378826 137.364958,96.7197498 136.970525,96.6458102 L136.970525,95.4145404 C136.970525,93.7466752 137.037632,92.0744087 137.106881,90.3762634 C137.602689,90.3301392 138.291787,90.2718678 139.301965,90.2718678 C140.925924,90.2861276 142.891487,90.8512371 142.895771,93.2414215 C142.891487,95.9539471 140.391386,96.7278479 138.430107,96.7378826 L138.430107,96.7378826 Z M146.985384,105.613623 C145.647702,104.135888 141.893446,99.3784052 140.523459,97.684309 C142.419952,97.3573905 145.336796,96.0622158 145.350895,93.0027023 C145.355179,91.5392271 144.747466,90.5244946 143.787975,89.9129088 C142.826522,89.2995626 141.535779,89.0689415 140.149551,89.0650685 C139.21469,89.0650685 138.29375,89.1853083 137.391373,89.1853083 C136.470612,89.1853083 135.557882,89.1391841 134.637121,89.0650685 L134.454361,89.0530973 L134.460429,89.2354816 C134.559841,91.2885368 134.655504,93.3635978 134.655504,95.4145404 L134.655504,99.5268124 C134.655504,101.579868 134.559841,103.654929 134.460429,105.712033 L134.454361,105.912374 L134.651399,105.874172 C135.062074,105.804105 135.437946,105.762206 135.812033,105.762206 C136.18612,105.762206 136.564133,105.804105 136.972666,105.874172 L137.169705,105.912374 L137.161673,105.712033 C137.06601,103.654929 136.970525,101.579868 136.970525,99.5268124 L136.970525,97.9429214 L137.655518,97.9429214 C139.724776,100.021855 142.911833,104.370558 143.865256,105.808154 L143.924153,105.894417 L144.029811,105.878397 C144.477074,105.804105 144.958782,105.762206 145.409971,105.762206 C145.881506,105.762206 146.359288,105.804105 146.838855,105.878397 L147.283976,105.942478 L146.985384,105.613623 Z" id="Fill-49" fill="#FFFFFF" mask="url(#mask-6)"></path>
                    <path d="M99.0456927,63.9749263 C81.4709605,56.3249457 72.4846886,42.5515889 72.3590264,23.0309735 L125.730223,23.0309735 C125.606519,42.5515889 116.626477,56.3147707 99.0456927,63.9749263" id="Fill-50" fill="#FFFFFF" mask="url(#mask-6)"></path>
                    <path d="M115.397598,27.7563984 L113.687863,27.7563984 L113.687863,25.6331353 L111.394198,25.6331353 L111.394198,23.5447505 L110.345442,23.9296706 C108.912536,24.4600369 107.679953,24.9186689 104.768818,24.9186689 C101.314542,24.9186689 99.7393233,25.717095 99.0270397,26.3048128 C98.3292592,25.717095 96.7641932,24.9186689 93.3204316,24.9186689 C90.4092963,24.9186689 89.1705501,24.4578795 87.7398191,23.9296706 L86.6908822,23.5427729 L86.6908822,25.6331353 L84.4012049,25.6331353 L84.4012049,27.7563984 L82.1095335,27.7563984 L82.1095335,49.8286265 L97.0678519,49.8203563 C97.0801795,49.8286265 97.098671,49.8408519 97.1316656,49.8572123 C97.1894967,50.8769539 97.9721203,51.6917404 98.9630448,51.6917404 C99.9168051,51.6917404 100.695259,50.9240576 100.796418,49.9391944 C100.870747,49.900181 100.943081,49.8635048 101.029737,49.8203563 L115.979716,49.8286265 L115.979716,27.7563984 L115.397598,27.7563984 Z" id="Fill-51" fill="#000000" mask="url(#mask-6)"></path>
                    <path d="M125.724172,0 C125.724172,2.0888234 125.730223,19.3714318 125.730223,23.5427729 L72.3590264,23.5427729 L72.3590264,0 L125.724172,0 Z" id="Fill-52" fill="#005A9C" mask="url(#mask-6)"></path>
                    <path d="M133.941176,51.6917404 C127.066505,53.187177 121.407198,55.7193 117.882157,58.8803116 L117.925071,58.9635102 L117.745904,58.9209311 L120.23439,64.4478467 C115.281737,66.8905356 108.331608,68.7187666 98.968272,68.7187666 L98.6546409,68.7187666 C89.2344437,68.7187666 82.2555265,66.8704041 77.2950058,64.4009918 L79.59002,59.0871501 L79.708034,58.8803116 C76.172979,55.7193 70.5279773,53.187177 63.6348884,51.6917404 L63.6431137,60.4568089 C66.9339154,61.5604818 69.0578093,62.3741176 70.8639595,64.0054868 L70.0453717,65.6448729 L68.3797654,68.8830259 L68.4225008,68.8789283 L68.1047571,69.4876854 C73.8840444,74.6351299 85.4526323,78.3053097 98.6546409,78.3053097 L98.968272,78.3053097 C112.164022,78.3053097 123.718484,74.6351299 129.495805,69.4876854 L126.736423,63.9892746 C128.542931,62.3741176 130.668792,61.5503269 133.941176,60.4568089 L133.941176,51.6917404 Z" id="Fill-53" fill="#ED1C2E" mask="url(#mask-6)"></path>
                    <path d="M73.3444965,68.9794249 C73.3286046,69.0219294 73.3093184,69.0529187 73.2954324,69.0876335 C73.1125991,69.4539168 73.0931586,69.65848 73.3040726,69.7875175 C73.4639167,69.8820094 73.6274638,69.8049595 73.7328437,69.6003963 C73.8804989,69.3074373 73.7363923,69.1165907 73.5868856,68.7906103 C73.4059038,68.4221256 73.2742947,68.1483021 73.2426653,67.9015731 C73.2250763,67.6641578 73.2742947,67.4115019 73.3937149,67.1551205 C73.7029115,66.532117 74.2423083,66.3661634 74.8099401,66.7097551 C75.4389792,67.0779012 75.5972804,67.6392648 75.2772836,68.2910561 C75.2598489,68.3294964 75.2316138,68.3642111 75.2177278,68.4046835 L74.5305214,68.003516 C74.5359216,67.9843806 74.5464133,67.9728654 74.5586022,67.9593182 C74.7098061,67.6450223 74.6957657,67.4347015 74.5288242,67.3324199 C74.3953636,67.2514752 74.2423083,67.3054948 74.1440257,67.4983735 C74.0139595,67.7606819 74.1580661,67.9688012 74.3478424,68.3393181 C74.5112352,68.6612343 74.6519474,68.9216798 74.674628,69.2031236 C74.6905199,69.419202 74.6396042,69.656448 74.5147839,69.905209 C74.1597633,70.6227044 73.6203665,70.8135511 72.9965732,70.4450663 C72.3359047,70.0574461 72.1936496,69.4865995 72.5468187,68.7635159 C72.5765966,68.6978118 72.6151691,68.632277 72.6557473,68.5687744 L73.3444965,68.9794249 Z" id="Fill-54" fill="#FFFFFF" mask="url(#mask-6)"></path>
                    <path d="M77.5232405,67.920239 L76.569066,70.3526479 C76.3624992,70.8828937 76.2633197,71.1719119 76.564962,71.2935761 C76.8590803,71.4152403 76.9681777,71.1500298 77.1648266,70.6556705 C77.1706406,70.6395653 77.1803875,70.6197839 77.1882535,70.6057794 L78.142428,68.17162 L79.030426,68.5443151 L78.1716689,70.719391 C78.1268671,70.8268757 78.0938643,70.9228066 78.0529955,71.0183874 C77.8972154,71.4092884 77.7626392,71.7341931 77.5134936,71.9416349 C77.1882535,72.2206748 76.7870897,72.2285524 76.2612677,72.0113074 C75.7626346,71.8059662 75.503571,71.5388301 75.4454314,71.1181696 C75.4004586,70.7433738 75.5678667,70.2828004 75.8231682,69.6448948 L76.6468705,67.5575221 L77.5232405,67.920239 Z" id="Fill-55" fill="#FFFFFF" mask="url(#mask-6)"></path>
                    <path d="M80.0695183,72.8694559 L80.3497622,71.9259331 C80.3678527,71.9294525 80.3894343,71.9313721 80.4148245,71.938571 C80.786949,72.0606306 80.9207234,72.2428403 80.8250343,72.5581477 C80.7256953,72.8876928 80.4997228,72.9971146 80.139976,72.8931319 C80.1147445,72.8876928 80.0876088,72.880494 80.0695183,72.8694559 L80.0695183,72.8694559 Z M79.030426,73.2612306 L80.0333373,73.5656599 C80.4779825,73.7003574 80.8013897,73.7696259 81.0997241,73.5946151 C81.3580689,73.450799 81.5676965,73.1902024 81.6671941,72.856818 C81.7901777,72.4541651 81.7051207,72.1207806 81.4321765,71.860184 C81.7720873,71.7109289 81.9599744,71.512242 82.0593134,71.1990142 C82.1623023,70.845633 82.1062852,70.5376843 81.8968164,70.3062029 C81.6941712,70.0931184 81.4142447,70.0000139 81.0292664,69.8870727 L80.1201399,69.6047198 L79.030426,73.2612306 Z M80.5393949,71.290039 L80.786949,70.4647365 C80.8177346,70.4701756 80.8448703,70.4810538 80.8737516,70.4847332 C81.1738316,70.5704789 81.2877699,70.7707655 81.2100126,71.0222436 C81.1195601,71.3247532 80.9207234,71.410339 80.5919208,71.313715 C80.5719261,71.3063563 80.5611353,71.2935584 80.5393949,71.290039 L80.5393949,71.290039 Z" id="Fill-56" fill="#FFFFFF" mask="url(#mask-6)"></path>
                    <path d="M88.0177825,73.8449999 C88.007426,73.9158873 87.9933199,73.9736777 87.9872488,74.0426005 C87.7981546,74.974778 87.2694408,75.3495154 86.3320048,75.2041389 C85.7848994,75.1091858 85.443137,74.8835903 85.2685061,74.5013222 C85.121909,74.1768446 85.1970824,73.6789956 85.3335016,72.9481842 C85.4840271,72.222939 85.6038403,71.7344217 85.8722148,71.4790306 C86.1732657,71.1845122 86.6003793,71.0818647 87.1289147,71.1714153 C88.0440307,71.3279242 88.4122198,71.8724311 88.216876,72.8008432 L88.216876,72.8383333 L87.2631912,72.6778953 C87.3567562,72.1800464 87.3039027,71.9506855 87.0010662,71.9041913 C86.6003793,71.8333039 86.5128853,72.1949442 86.3480752,73.0506681 C86.3320048,73.0675304 86.3320048,73.0991269 86.327898,73.1122239 C86.1509458,74.0146057 86.0695228,74.4137362 86.4823517,74.4788937 C86.8078652,74.5329187 86.9216074,74.3390834 87.0171366,73.8618622 C87.0273145,73.8076735 87.0376709,73.7461177 87.0539198,73.6865264 L88.0177825,73.8449999 Z" id="Fill-57" fill="#FFFFFF" mask="url(#mask-6)"></path>
                    <path d="M91.0858097,73.3361594 L91.2149937,72.4084017 C91.2602171,72.4210471 91.3011164,72.413684 91.334088,72.4210471 C91.748666,72.4612244 91.8942458,72.597923 91.8470405,72.9260636 C91.8019972,73.2796552 91.6212837,73.3945845 91.2149937,73.3528066 C91.1782384,73.3472042 91.133015,73.339841 91.0858097,73.3361594 L91.0858097,73.3361594 Z M89.8073022,75.4471444 L90.79447,75.5529498 L90.9975249,74.0308573 L91.1985979,74.0454235 C91.5762405,74.0891222 91.6520933,74.2714404 91.5946181,74.7034656 C91.5762405,74.8071901 91.5537189,74.9277218 91.5310171,75.0935528 C91.5023696,75.2869157 91.5023696,75.4581892 91.532999,75.6259411 L92.7088078,75.7463127 C92.4626915,75.5311805 92.5446702,75.2030398 92.5960195,74.7125895 C92.6351171,74.2714404 92.6657465,74.0198125 92.2162149,73.7846717 C92.6124153,73.6351676 92.8156504,73.3635312 92.8729454,72.9260636 C92.9203309,72.5796751 92.8442979,72.3025964 92.6185412,72.1002696 C92.3805327,71.8942613 92.0111781,71.8286332 91.4427323,71.7684474 L90.3121469,71.6519174 L89.8073022,75.4471444 Z" id="Fill-58" fill="#FFFFFF" mask="url(#mask-6)"></path>
                    <path d="M95.1629483,72.2198515 L94.9932511,74.6759497 C94.9557125,75.2178716 94.9491336,75.4950881 95.3281952,75.5215915 C95.6786191,75.5401934 95.7028063,75.2664339 95.7401513,74.7659957 C95.7469237,74.754637 95.7469237,74.7302736 95.7469237,74.7096964 L95.914299,72.2611706 L96.9918864,72.3100621 L96.8376689,74.5203858 C96.8376689,74.6216258 96.83109,74.7227012 96.8179322,74.8147225 C96.793745,75.2178716 96.7517561,75.543815 96.566579,75.8063804 C96.3154193,76.1552056 95.8877899,76.2882168 95.2399603,76.2524948 C94.6383767,76.2245097 94.274795,76.0633489 94.0588518,75.7051404 C93.8759967,75.3790325 93.9023123,74.9215595 93.9398508,74.2785622 L94.0874894,72.1637168 L95.1629483,72.2198515 Z" id="Fill-59" fill="#FFFFFF" mask="url(#mask-6)"></path>
                    <path d="M100.581822,74.6513431 C100.584178,74.7204902 100.584178,74.7857047 100.584178,74.8492807 C100.581822,75.797186 100.095917,76.2581121 99.0591084,76.2581121 C98.4526071,76.2563097 98.0244539,76.0865552 97.7615322,75.7450799 C97.534241,75.4501396 97.505071,74.9444809 97.505071,74.2072941 C97.505071,73.4683049 97.538548,72.9644486 97.7724954,72.6678698 C98.0356129,72.328033 98.4639618,72.1582785 99.0591084,72.1638496 C100.080059,72.1658159 100.586325,72.6434553 100.584178,73.5857894 L100.584178,73.62151 L99.5252414,73.62151 C99.5162359,73.1192922 99.4158049,72.899234 99.0747702,72.899234 C98.6266483,72.899234 98.6176428,73.2703672 98.6064838,74.1327398 L98.6064838,74.2090965 C98.6041345,75.1198065 98.6021768,75.524694 99.0591084,75.5266602 C99.4269639,75.5266602 99.5072304,75.3120093 99.5072304,74.8268325 L99.5072304,74.6495406 L100.581822,74.6513431 Z" id="Fill-60" fill="#FFFFFF" mask="url(#mask-6)"></path>
                    <polygon id="Fill-61" fill="#FFFFFF" mask="url(#mask-6)" points="101.610548 72.2758165 103.952428 72.1637168 103.997562 72.9380567 102.659086 72.9988679 102.702234 73.737122 103.933834 73.6723013 103.978967 74.4733714 102.74141 74.5305072 102.788529 75.4039158 104.135309 75.3352526 104.176471 76.1478501 101.832423 76.2581121"></polygon>
                    <polygon id="Fill-62" fill="#FFFFFF" mask="url(#mask-6)" points="107.391949 75.7463127 106.742394 71.7859176 107.84592 71.6519174 108.36369 74.8264465 109.687523 74.6697771 109.821501 75.4729388"></polygon>
                    <path d="M110.745431,71.4385923 L111.238888,73.7699662 C111.353602,74.2858596 111.416754,74.5501636 111.740071,74.4886569 C112.046088,74.4343021 111.99251,74.1682499 111.887369,73.6995593 C111.887369,73.6795339 111.883506,73.6614157 111.881658,73.6487011 L111.388033,71.3211416 L112.302558,71.140118 L112.751842,73.2378618 C112.769142,73.3319496 112.788289,73.4261963 112.811299,73.5185358 C112.883856,73.9002905 112.94516,74.2027381 112.857151,74.4958088 C112.729,74.874067 112.415257,75.082268 111.860664,75.194474 C111.351755,75.2904689 110.996022,75.2179959 110.728131,74.9320772 C110.483251,74.6677733 110.385668,74.233412 110.248111,73.6215237 L109.821501,71.6142122 L110.745431,71.4385923 Z" id="Fill-63" fill="#FFFFFF" mask="url(#mask-6)"></path>
                    <path d="M114.440162,70.1774384 L115.710476,69.7797171 L116.542837,71.3968819 C116.573722,71.4490884 116.696584,71.7542138 116.936909,72.2946209 C116.850332,71.6981272 116.802233,71.3626655 116.796495,71.2944092 L116.654224,69.4865851 L117.901753,69.0929204 L119.058824,73.12622 L118.205535,73.389545 L117.392413,70.2460476 L117.669192,73.5581577 L116.982983,73.7749202 L115.485677,70.8503017 L116.448665,73.9417691 L115.595376,74.2109145 L114.440162,70.1774384 Z" id="Fill-64" fill="#FFFFFF" mask="url(#mask-6)"></path>
                    <polygon id="Fill-65" fill="#FFFFFF" mask="url(#mask-6)" points="118.545639 68.9304819 120.567192 68.0693215 120.875687 68.7986768 119.715317 69.291328 120.00249 69.97777 121.070295 69.5222423 121.390298 70.2706702 120.324524 70.7321581 120.659757 71.5487023 121.814036 71.0541779 122.137931 71.8162291 120.114348 72.6755162"></polygon>
                    <path d="M121.624746,66.8803772 L122.4529,66.345607 L124.338589,68.2360504 C123.897138,67.5229022 123.564855,66.9715684 123.354436,66.5611169 L123.040951,65.970285 L123.748889,65.5103245 L125.730223,69.2704611 L124.898277,69.8012269 L122.97334,67.8381581 C123.354436,68.41006 123.69447,68.9761373 123.985363,69.5380282 L124.325397,70.1721804 L123.604267,70.6283186 L121.624746,66.8803772 Z" id="Fill-66" fill="#FFFFFF" mask="url(#mask-6)"></path>
                    <path d="M98.0182556,46.9828208 L98.0080631,46.9727285 C96.7148735,45.5257486 95.3422899,45.0330293 94.0471333,45.0330293 L92.6969017,45.1604443 C91.2429573,45.3202987 89.245058,45.5257486 88.2839277,45.5257486 L86.2881741,45.5257486 L86.2881741,27.1253687 L85.188641,27.1253687 L85.188641,46.7919687 L88.2839277,46.7919687 C89.186049,46.7919687 91.2247182,46.5785891 92.5829965,46.4347742 L94.0471333,46.2952846 C95.2772013,46.2952846 96.6619442,46.1065951 98.0182556,47.0855457 L98.0182556,46.9828208 Z" id="Fill-67" fill="#FFFFFF" mask="url(#mask-6)"></path>
                    <path d="M110.779622,27.1253687 L110.779622,45.4841283 L108.797757,45.4841283 C107.835085,45.4841283 105.847157,45.279321 104.387014,45.1216247 L103.04687,44.9926986 C101.749341,44.9926986 100.376567,45.4841283 99.1013259,46.9278494 L99.0446247,46.9913235 L99.0446247,47.0855457 C100.390831,46.0616887 101.80408,46.254089 103.04687,46.254089 L104.505052,46.3912865 C105.859282,46.5345977 107.898205,46.7476765 108.797757,46.7476765 L111.874239,46.7476765 L111.874239,27.1253687 L110.779622,27.1253687 Z" id="Fill-68" fill="#FFFFFF" mask="url(#mask-6)"></path>
                    <path d="M93.968356,43.7616935 L92.4771803,43.8961347 C91.093963,44.0325424 89.0108397,44.2422491 88.0910048,44.2422491 L87.2413793,44.2422491 L87.2413793,25.5899705 C88.5498281,26.0562238 89.9682412,26.4513235 92.726287,26.4513235 C97.1188452,26.4513235 97.9226978,27.7748179 97.9350984,27.7950198 L98.0182556,27.929461 L98.0182556,45.0383481 C96.6350383,43.9776575 95.2228255,43.7616935 93.968356,43.7616935" id="Fill-69" fill="#FFFFFF" mask="url(#mask-6)"></path>
                    <path d="M109.308316,44.2032303 L108.473999,44.2032303 C107.559158,44.2032303 105.478635,43.9939603 104.097921,43.8578366 L102.611599,43.7238538 C101.348853,43.7238538 99.9079735,43.9452555 98.5314402,45.0383481 L98.5314402,27.9367209 L98.6121454,27.792569 C98.6225062,27.7782966 99.4608228,26.4493514 103.851442,26.4493514 C106.592512,26.4493514 108.006308,26.0552529 109.308316,25.5899705 L109.308316,44.2032303 Z" id="Fill-70" fill="#FFFFFF" mask="url(#mask-6)"></path>
                    <path d="M93.3578731,31.6175305 C91.467797,31.6445746 89.9331543,31.5052083 88.7809331,31.219764 L88.7809331,31.8763254 C89.9581228,32.1548606 91.4949686,32.2875152 93.3641152,32.2582996 L94.4744776,32.2853438 C95.5198485,32.3504867 96.3478469,32.5101855 96.9918864,32.7551622 L96.9918864,32.0851775 C96.3269174,31.8514527 95.5136064,31.7051773 94.5078913,31.6400344 L93.3578731,31.6175305 Z" id="Fill-71" fill="#000000" mask="url(#mask-6)"></path>
                    <path d="M93.41911,33.9134896 C91.4140178,33.9660291 89.7939549,33.9082664 88.7809331,33.7787611 L88.7809331,34.2844923 C90.1078593,34.4505602 92.0021292,34.4505602 93.4422669,34.4173773 L94.4405859,34.4173773 C95.5436622,34.46454 96.3390828,34.5835989 96.9918864,34.8023599 L96.9918864,34.2705125 C96.3221746,34.0709545 95.5184837,33.9660291 94.4615373,33.9134896 L93.41911,33.9134896 Z" id="Fill-72" fill="#000000" mask="url(#mask-6)"></path>
                    <path d="M93.4913945,36.3496482 C91.8856389,36.4213386 89.9469671,36.4790406 88.7809331,36.3795484 L88.7809331,36.9509732 C89.9951306,37.0506403 91.9170738,36.9829716 93.5143732,36.9132046 L94.3916102,36.8992162 C95.2039553,36.933138 96.137812,37.0107735 96.9918864,37.3613569 L96.9918864,36.747967 C96.1229217,36.435327 95.2206838,36.3576915 94.4105447,36.3377581 L93.4913945,36.3496482 Z" id="Fill-73" fill="#000000" mask="url(#mask-6)"></path>
                    <path d="M93.5580776,38.9337341 L93.0396521,38.9669468 C91.6815726,39.0527175 89.8703085,39.1775215 88.7809331,39.1521841 L88.7809331,39.7116624 C89.9123281,39.7332335 91.7235922,39.6121958 93.0752213,39.5245419 L93.6041517,39.4894461 L94.3660326,39.4601711 C95.2204303,39.4719838 96.1354615,39.5517625 96.9874633,39.920354 L96.9918864,39.3139671 C96.1081856,38.990401 95.1909429,38.918155 94.3722987,38.8967552 L93.5580776,38.9337341 Z" id="Fill-74" fill="#000000" mask="url(#mask-6)"></path>
                    <path d="M94.3290241,40.9439528 L92.8431359,41.0712467 C91.6181824,41.1849987 89.8357439,41.3603664 88.7809331,41.3989608 L88.7809331,41.9484237 C89.858811,41.907798 91.6600722,41.7363236 92.9084619,41.6207096 L94.3290241,41.4934156 C95.1299127,41.4934156 96.0693882,41.5609559 96.9876421,41.9675516 L96.9918864,41.368153 C96.0315583,41.0018445 95.0813796,40.9439528 94.3290241,40.9439528" id="Fill-75" fill="#000000" mask="url(#mask-6)"></path>
                    <path d="M93.2716505,29.1757995 C91.7182219,29.1757995 90.6430675,29.0493559 89.8060419,28.8726524 L89.8060419,27.3985361 C89.467822,27.3362843 89.1587495,27.2699764 88.7809331,27.1253687 L88.7809331,29.2040156 C89.7893601,29.497287 91.0606637,29.7441781 93.2716505,29.7441781 C94.7706339,29.7441781 96.0149899,29.894958 96.9918864,30.1961652 L96.9918864,29.6036265 C95.9876757,29.3264031 94.753952,29.1757995 93.2716505,29.1757995" id="Fill-76" fill="#000000" mask="url(#mask-6)"></path>
                    <path d="M104.254278,29.7607262 C106.498296,29.7607262 107.785499,29.5026882 108.795132,29.2035164 L108.795132,28.5823408 C107.808584,28.8940159 106.54465,29.1663691 104.254278,29.1663691 C103.286751,29.1663691 102.424491,29.2386705 101.658818,29.3562734 L101.658818,27.6371681 C101.43388,27.6723222 101.250865,27.7156305 101.065633,27.7650999 C100.901824,27.8064149 100.727119,27.8620453 100.584178,27.9116959 L100.584178,30.1961652 C101.562047,29.9114899 102.784059,29.7607262 104.254278,29.7607262" id="Fill-77" fill="#000000" mask="url(#mask-6)"></path>
                    <path d="M104.193253,31.6332695 L103.034427,31.6603102 C102.060643,31.7141942 101.255097,31.8671616 100.584178,32.0807239 L100.584178,32.7551622 C101.240508,32.5123881 102.045869,32.3615919 103.070253,32.2919177 L104.186974,32.2739563 C106.065103,32.3033655 107.611005,32.1705306 108.795132,31.8874915 L108.795132,31.219764 C107.642585,31.5209618 106.096683,31.6624814 104.193253,31.6332695" id="Fill-78" fill="#000000" mask="url(#mask-6)"></path>
                    <path d="M104.130174,33.9159299 L103.080651,33.9159299 C102.049965,33.9535104 101.250865,34.0675046 100.584178,34.2637061 L100.584178,34.8023599 C101.240338,34.5865852 102.024849,34.468833 103.114262,34.4207612 L104.119648,34.4207612 C105.556255,34.4580286 107.461574,34.4528612 108.795132,34.2834358 L108.795132,33.7787611 C107.777189,33.910606 106.145007,33.9535104 104.130174,33.9159299" id="Fill-79" fill="#000000" mask="url(#mask-6)"></path>
                    <path d="M104.069152,36.3577524 L103.131195,36.3377581 C102.342455,36.3639453 101.440325,36.450469 100.584178,36.7468438 L100.584178,37.3613569 C101.425551,37.0248167 102.35095,36.944132 103.162775,36.9159986 L104.039789,36.9301538 C105.644417,37.0005759 107.566684,37.0671054 108.795132,36.9743888 L108.795132,36.3961484 C107.615068,36.4927577 105.680244,36.4223355 104.069152,36.3577524" id="Fill-80" fill="#000000" mask="url(#mask-6)"></path>
                    <path d="M104.538127,39.4758326 L104.010318,39.4382821 C104.008287,39.4382821 103.185917,39.4085546 103.185917,39.4085546 C102.386632,39.4205499 101.473771,39.4897401 100.584178,39.8224793 L100.584178,40.4321534 C101.461213,40.066036 102.395128,39.9867627 103.204754,39.9648583 L103.961933,40.0004965 C103.965996,40.0004965 104.494174,40.0401331 104.494174,40.0401331 C105.858942,40.1234048 107.672107,40.2501378 108.795132,40.226321 L108.795132,39.6620204 C107.70775,39.6797526 105.907327,39.5690134 104.538127,39.4758326" id="Fill-81" fill="#000000" mask="url(#mask-6)"></path>
                    <path d="M104.723284,41.5835957 L103.248239,41.4557522 C102.486419,41.4557522 101.541489,41.5119284 100.584178,41.8842236 L100.584178,42.479351 C101.50361,42.0742013 102.450573,42.012067 103.248239,42.012067 L104.651592,42.1322501 C105.905833,42.2524332 107.70922,42.4250474 108.795132,42.4657326 L108.795132,41.9094177 C107.736751,41.8763929 105.950178,41.7058215 104.723284,41.5835957" id="Fill-82" fill="#000000" mask="url(#mask-6)"></path>
                    <path d="M94.3288365,47.5566671 L92.9701379,47.6914165 C91.5068964,47.8425321 89.4968287,48.0496569 88.5296714,48.0496569 L84.2486283,48.0496569 L84.2486283,29.1725664 L83.1359026,29.1725664 L83.1359026,49.1327434 L88.5296714,49.1327434 C89.4372698,49.1327434 91.4926815,48.9152532 92.8574978,48.7725026 L94.3288365,48.6399354 C95.2959938,48.6399354 96.390366,48.3500698 97.4681841,48.6917621 L97.505071,48.6046569 C96.4497449,47.7845226 95.3614906,47.5566671 94.3288365,47.5566671" id="Fill-83" fill="#FFFFFF" mask="url(#mask-6)"></path>
                    <path d="M113.301889,29.1725664 L113.301889,48.0496668 L108.910642,48.0496668 C107.911119,48.0496668 105.853507,47.8405436 104.342584,47.6912478 L102.951751,47.5566815 C101.83879,47.5566815 100.673173,47.8032651 99.5578093,48.7164972 L99.5642757,48.7475929 C100.721394,48.3126166 101.897542,48.6399399 102.951751,48.6399399 L104.46249,48.7725058 C105.866071,48.9152552 107.980587,49.1327434 108.910642,49.1327434 L114.440162,49.1327434 L114.440162,29.1725664 L113.301889,29.1725664 Z" id="Fill-84" fill="#FFFFFF" mask="url(#mask-6)"></path>
                    <polygon id="Fill-85" fill="#FFFFFF" mask="url(#mask-6)" points="102.636917 17.1526156 104.629291 17.1546244 105.467858 15.8657817 106.287741 17.1546244 108.281947 17.1526156 107.311862 18.6798414 108.281947 20.2068999 106.287741 20.2068999 105.467858 21.4955752 104.629291 20.2068999 102.636917 20.2068999 103.6092 18.6798414"></polygon>
                    <polygon id="Fill-86" fill="#FFFFFF" mask="url(#mask-6)" points="110.078093 6.65339233 111.38048 8.28486625 113.595169 8.17539044 112.967782 10.0901508 114.440162 11.6121489 112.366784 12.3530655 111.981288 14.3303835 110.078093 13.3730033 108.100706 14.3101233 107.739304 12.3733257 105.716024 11.5696737 107.159913 10.0679357 106.563121 8.17539044 108.775706 8.26247347"></polygon>
                    <polygon id="Fill-87" fill="#FFFFFF" mask="url(#mask-6)" points="98.7902326 1.53539823 100.090981 3.16511678 102.311187 3.05774876 101.681379 4.97099709 103.150101 6.49334762 101.080269 7.23230268 100.694578 9.21238938 98.7902326 8.2567429 96.8141439 9.18999142 96.4523679 7.25665602 94.4259635 6.45086259 95.8749804 4.95073227 95.2713828 3.05774876 97.4894845 3.14289657"></polygon>
                    <polygon id="Fill-88" fill="#FFFFFF" mask="url(#mask-6)" points="99.0446247 14.3303835 99.9902524 15.6400248 101.610548 16.096737 100.568665 17.353595 100.606568 18.9189266 99.0446247 18.3921225 97.444603 18.9365782 97.482682 17.353595 96.4787018 16.096737 98.0810154 15.6244298"></polygon>
                    <polygon id="Fill-89" fill="#FFFFFF" mask="url(#mask-6)" points="94.4259635 15.6108298 93.000043 14.2431261 93.000043 12.2019959 90.8188074 12.2019959 89.2860711 10.7477876 87.7574023 12.2019959 85.6506194 12.2019959 85.6465519 14.1959104 84.1622718 15.6010075 85.6465519 17.0257491 85.6506194 19.0177681 87.7574023 19.0177681 89.2860711 20.4719764 90.8188074 19.0177681 93.000043 19.0177681 93.000043 16.9768102"></polygon>
                    <path d="M115.99054,43.1577937 L115.99054,35.3098121 L116.492901,35.3098121 L116.492901,32.9425315 L115.99054,32.9425315 L115.99054,30.1961652 L114.847776,30.1961652 L114.847776,49.284196 L100.174178,49.2763492 C100.09306,49.3180242 100.020125,49.3556887 99.9452333,49.3916094 C99.8500623,50.3468218 99.0842466,51.0933103 98.1501471,51.0933103 C97.1778013,51.0933103 96.4039806,50.2990437 96.3513252,49.3140137 C96.3187714,49.2960533 96.3004487,49.284196 96.2883522,49.2763492 L81.608706,49.284196 L81.608706,30.1961652 L80.5024091,30.1961652 L80.5024091,32.9425315 L80.0567951,32.9425315 L80.0567951,35.3098121 L80.5024091,35.3098121 L80.5024091,43.1577937 L80.0567951,43.1577937 L80.0567951,45.5289105 L80.5024091,45.5289105 L80.5024091,50.3070649 L95.2672646,50.3070649 C95.7616204,51.4268849 96.9002932,52.2035398 98.2211251,52.2035398 C99.5462264,52.2035398 100.68063,51.4268849 101.184948,50.3070649 L115.99054,50.3070649 L115.99054,45.5289105 L116.492901,45.5289105 L116.492901,43.1577937 L115.99054,43.1577937 Z" id="Fill-90" fill="#ED1C2E" mask="url(#mask-6)"></path>
                    <path d="M71.8458418,23.0309735 C71.9715476,42.5495339 80.9566641,56.3220695 98.5314402,63.9749263 L98.5314402,52.680683 C98.5152373,52.680683 98.4949392,52.6826467 98.4787363,52.6826467 C97.1565106,52.6826467 96.0169679,51.8878508 95.5223351,50.7429661 L80.743712,50.7429661 L80.743712,45.8513648 L80.2976879,45.8513648 L80.2976879,43.4237738 L80.743712,43.4237738 L80.743712,35.3865514 L80.2976879,35.3865514 L80.2976879,32.9630665 L80.743712,32.9630665 L80.743712,30.1532521 L81.850849,30.1532521 L81.8528076,27.7785046 L84.1037607,27.7785046 L84.1037607,25.6701173 L86.3525771,25.6701173 L86.3525771,23.5922579 L87.3827949,23.9784088 C88.7878155,24.5030955 90.0044555,24.9606566 92.8638175,24.9606566 C96.2461228,24.9606566 97.7832591,25.7534888 98.4685873,26.337089 C98.4888854,26.3206646 98.5131006,26.3044188 98.5314402,26.2860306 L98.5314402,23.0309735 L71.8458418,23.0309735 Z" id="Fill-91" fill="#B38808" mask="url(#mask-6)"></path>
                </g>
            </g>
        </g>
    </g>
</svg>