<?xml version="1.0" encoding="UTF-8"?>
<svg width="420px" height="164px" viewBox="0 0 420 164" version="1.1" xmlns="http://www.w3.org/2000/svg" xmlns:xlink="http://www.w3.org/1999/xlink">
    <title>CSU-Logo</title>
    <defs>
        <path d="M175.75075,48.71 L175.75075,54.94 L174.44075,54.94 C173.51075,50.25 170.94075,47.81 166.86075,47.81 C160.96075,47.81 158.11075,53.55 158.11075,60.52 C158.11075,68.14 161.32075,74.17 167.23075,74.17 C171.31075,74.17 173.91075,71.8 175.23075,65.98 L176.65075,65.98 L176.08075,73.39 C173.333523,75.0043606 170.185665,75.808659 167.00075,75.71 C158.36075,75.71 152.94075,70.01 152.94075,61.66 C152.94075,52.29 158.94075,46.3 166.83075,46.3 C169.975061,46.2198058 173.074645,47.0572497 175.75075,48.71 L175.75075,48.71 Z M180.92075,47.4 L178.35075,46.02 L178.35075,45.41 L184.83075,43.41 L185.44075,43.41 L185.44075,57.46 C187.28075,55.39 189.64075,53.55 192.90075,53.55 C196.69075,53.55 198.56075,55.79 198.56075,60.23 L198.56075,72.18 C198.56075,73.69 199.21075,73.97 201.25075,74.1 L201.25075,75.28 L191.31075,75.28 L191.31075,74.18 C193.31075,74.05 194.00075,73.77 194.00075,72.26 L194.00075,60.32 C194.00075,57.59 192.90075,56.32 190.58075,56.32 C188.674018,56.4446928 186.864188,57.2052439 185.44075,58.48 L185.44075,72.18 C185.44075,73.69 186.05075,73.97 188.09075,74.1 L188.09075,75.28 L178.19075,75.28 L178.19075,74.18 C180.19075,74.05 180.88075,73.77 180.88075,72.26 L180.92075,47.4 Z M219.38075,70.78 C219.38075,72.41 219.70075,73.27 220.84075,73.27 C221.453875,73.25486 222.055603,73.1010092 222.60075,72.82 L222.84075,73.56 C221.865965,74.9291433 220.281299,75.7326883 218.60075,75.71 C216.48075,75.71 215.22075,74.33 214.90075,72.09 C213.51075,73.76 211.31075,75.67 208.46075,75.67 C205.20075,75.67 203.12075,73.67 203.12075,70.5 C203.12075,67.04 205.65075,65.61 208.83075,64.43 L214.83075,62.23 L214.83075,59.18 C214.83075,56.62 213.90075,54.74 211.45075,54.74 C209.29075,54.74 208.40075,56.25 208.40075,58.29 C208.417739,59.0599109 208.525142,59.8251584 208.72075,60.57 L206.03075,60.94 C204.972271,60.6534119 204.259005,59.6648513 204.32075,58.57 C204.32075,55.35 207.66075,53.57 211.94075,53.57 C216.83075,53.57 219.40075,55.57 219.40075,60.01 L219.38075,70.78 Z M214.81075,71.15 L214.81075,63.49 L210.54075,65.24 C208.62075,65.98 207.54075,67.04 207.54075,69.24 C207.54075,71.44 208.64075,72.94 210.92075,72.94 C212.33075,72.94 213.44075,72.29 214.81075,71.18 L214.81075,71.15 Z M231.23075,72.05 C231.23075,73.68 232.17075,73.96 234.78075,74.13 L234.78075,75.31 L223.98075,75.31 L223.98075,74.18 C225.98075,74.05 226.67075,73.77 226.67075,72.26 L226.67075,57.67 L224.10075,56.24 L224.10075,55.67 L230.70075,53.55 L231.40075,53.55 L231.23075,59.42 C233.35075,55.14 234.41075,53.55 236.77075,53.55 C237.391621,53.5133356 237.998797,53.7423902 238.44075,54.18 L238.44075,57.85 L237.75075,57.85 C235.27075,57.85 233.43075,58.01 231.23075,60.46 L231.23075,72.05 Z M247.12075,72.21 C247.12075,73.72 247.77075,74 249.81075,74.13 L249.81075,75.31 L239.87075,75.31 L239.87075,74.18 C241.87075,74.05 242.56075,73.77 242.56075,72.26 L242.56075,47.4 L239.99075,46.02 L239.99075,45.41 L246.43075,43.41 L247.12075,43.41 L247.12075,72.21 Z M269.20075,61.82 L269.20075,62.68 L255.80075,62.68 C255.55075,68.91 258.69075,72.46 262.80075,72.46 C265.321842,72.5200134 267.670869,71.1859511 268.91075,68.99 L269.44075,69.28 C268.606444,73.1611647 265.097078,75.876595 261.13075,75.71 C255.26075,75.71 251.67075,71.19 251.67075,65.2 C251.67075,58.4 255.83075,53.55 261.25075,53.55 C266.44075,53.55 269.20075,57.1 269.20075,61.82 L269.20075,61.82 Z M255.92075,61.37 L264.92075,61.37 C264.92075,57.63 263.78075,54.94 260.85075,54.94 C257.92075,54.94 256.25075,57.71 255.92075,61.37 L255.92075,61.37 Z M272.58075,73.72 L272.34075,68.1 L273.64075,68.1 C274.64075,71.72 276.64075,74.45 279.75075,74.45 C282.07075,74.45 283.87075,73.27 283.87075,70.87 C283.87075,68.47 282.36075,67.65 278.87075,66.34 C274.67075,64.8 272.59075,63.21 272.59075,59.62 C272.59075,55.83 275.40075,53.55 279.68075,53.55 C281.932735,53.5043937 284.151622,54.0972526 286.08075,55.26 L286.08075,60.18 L284.90075,60.18 C284.16075,57.18 282.49075,54.81 279.56075,54.81 C277.32075,54.81 276.10075,56.11 276.10075,57.98 C276.10075,59.98 277.36075,60.98 280.78075,62.26 C284.97075,63.78 287.44075,65.45 287.44075,69.18 C287.44075,73.29 284.35075,75.73 279.66075,75.73 C277.150351,75.8028388 274.678391,75.1010536 272.58075,73.72 L272.58075,73.72 Z M299.63075,73.07 L299.35075,66.07 L300.77075,66.07 C301.71075,71.16 304.28075,74.22 308.39075,74.22 C311.98075,74.22 314.14075,72.22 314.14075,69.22 C314.14075,66 312.34075,64.74 307.21075,62.7 C302.77075,60.95 299.63075,58.99 299.63075,54.23 C299.63075,49.66 303.10075,46.28 308.63075,46.28 C311.576272,46.2034571 314.47513,47.026719 316.94075,48.64 L316.94075,54.71 L315.59075,54.71 C314.94075,50.19 312.54075,47.71 308.59075,47.71 C305.53075,47.71 303.70075,49.62 303.70075,52.31 C303.70075,55.31 305.16075,56.51 309.70075,58.26 C315.19075,60.46 318.29075,62.54 318.29075,67.34 C318.29075,72.72 313.81075,75.65 308.43075,75.65 C305.292345,75.7907254 302.196348,74.8830353 299.63075,73.07 L299.63075,73.07 Z M327.50075,53.96 L333.08075,53.96 L333.08075,55.63 L327.50075,55.63 L327.50075,69.11 C327.50075,71.88 328.50075,73.03 330.64075,73.03 C331.787211,73.028656 332.896131,72.6212256 333.77075,71.88 L334.22075,72.5 C332.970817,74.4891051 330.789958,75.7002738 328.44075,75.71 C325.34075,75.71 322.98075,74.04 322.98075,69.6 L322.98075,55.6 L320.33075,55.6 L320.33075,54.87 C322.925386,53.4529714 325.070092,51.3359845 326.52075,48.76 L327.52075,48.76 L327.50075,53.96 Z M354.79075,71.18 C354.79075,72.57 354.88075,72.93 356.59075,73.1 L357.65075,73.18 L357.65075,74.24 L350.92075,75.7 L350.11075,75.7 L350.27075,71.83 C348.40075,73.83 346.27075,75.7 343.22075,75.7 C339.68075,75.7 337.52075,73.7 337.52075,69.23 L337.52075,58.23 C337.52075,56.8 337.19075,56.31 335.44075,56.03 L334.79075,55.95 L334.79075,54.85 L341.59075,53.54 L342.25075,53.54 L342.04075,58.19 L342.04075,68.5 C342.04075,71.27 343.04075,72.86 345.46075,72.86 C347.242312,72.7486308 348.935448,72.044624 350.27075,70.86 L350.27075,58.28 C350.27075,56.85 349.99075,56.36 348.19075,56.08 L347.58075,56 L347.58075,54.9 L354.30075,53.59 L354.96075,53.59 L354.79075,58.08 L354.79075,71.18 Z M366.69075,72.04 C366.69075,73.67 367.63075,73.95 370.23075,74.12 L370.23075,75.3 L359.44075,75.3 L359.44075,74.18 C361.44075,74.05 362.13075,73.77 362.13075,72.26 L362.13075,57.67 L359.56075,56.24 L359.56075,55.67 L366.16075,53.55 L366.85075,53.55 L366.69075,59.42 C368.81075,55.14 369.87075,53.55 372.23075,53.55 C372.853816,53.5236262 373.459458,53.7593554 373.90075,54.2 L373.90075,57.87 L373.21075,57.87 C370.72075,57.87 368.89075,58.03 366.69075,60.48 L366.69075,72.04 Z M382.44075,53.96 L388.02075,53.96 L388.02075,55.63 L382.44075,55.63 L382.44075,69.11 C382.44075,71.88 383.44075,73.03 385.57075,73.03 C386.720189,73.0284289 387.832183,72.62117 388.71075,71.88 L389.16075,72.5 C387.922275,74.4712586 385.768576,75.6798901 383.44075,75.71 C380.35075,75.71 377.98075,74.04 377.98075,69.6 L377.98075,55.6 L375.34075,55.6 L375.34075,54.87 C377.898196,53.4477371 380.010096,51.3427609 381.44075,48.79 L382.44075,48.79 L382.44075,53.96 Z M160.35075,105.86 C160.35075,111 162.75075,114.05 167.19075,114.05 C172.19075,114.05 175.34075,111.57 175.34075,105.58 L175.34075,91.58 C175.34075,89.3 174.77075,88.98 171.34075,88.65 L171.34075,87.45 L180.58075,87.45 L180.58075,88.67 C177.65075,89.04 177.12075,89.32 177.12075,91.6 L177.12075,106.31 C177.12075,113.19 172.48075,116.45 166.65075,116.45 C159.81075,116.45 155.53075,113.19 155.53075,106.19 L155.53075,91.56 C155.53075,89.28 155.00075,89.04 152.07075,88.67 L152.07075,87.45 L163.76075,87.45 L163.76075,88.67 C160.76075,89.04 160.30075,89.28 160.30075,91.56 L160.35075,105.86 Z M197.35075,101.06 C197.35075,98.33 196.25075,97.06 193.93075,97.06 C192.039368,97.1800869 190.241663,97.9259058 188.82075,99.18 L188.82075,112.95 C188.82075,114.46 189.47075,114.74 191.47075,114.87 L191.47075,116.05 L181.57075,116.05 L181.57075,114.87 C183.57075,114.74 184.26075,114.46 184.26075,112.95 L184.26075,98.41 L181.69075,96.98 L181.69075,96.41 L188.29075,94.29 L188.99075,94.29 L188.82075,98.18 C190.66075,96.11 193.02075,94.27 196.28075,94.27 C200.07075,94.27 201.94075,96.43 201.94075,100.83 L201.94075,112.93 C201.94075,114.44 202.59075,114.72 204.63075,114.85 L204.63075,116.03 L194.69075,116.03 L194.69075,114.87 C196.69075,114.74 197.38075,114.46 197.38075,112.95 L197.35075,101.06 Z M213.64075,112.95 C213.64075,114.46 214.30075,114.74 216.33075,114.87 L216.33075,116.05 L206.44075,116.05 L206.44075,114.87 C208.44075,114.74 209.13075,114.46 209.13075,112.95 L209.13075,98.41 L206.54075,96.98 L206.54075,96.41 L213.02075,94.29 L213.67075,94.29 L213.64075,112.95 Z M208.35075,88.55 C208.339869,87.78024 208.640854,87.0388178 209.185211,86.4944609 C209.729568,85.9501041 210.47099,85.6491184 211.24075,85.66 C212.266102,85.6599999 213.213567,86.2070188 213.726243,87.095 C214.238919,87.9829811 214.238919,89.0770189 213.726243,89.965 C213.213567,90.8529812 212.266102,91.4000001 211.24075,91.4 C210.48234,91.4053458 209.753298,91.1071182 209.216069,90.5717677 C208.67884,90.0364172 208.378061,89.3084246 208.38075,88.55 L208.35075,88.55 Z M238.82075,95.88 C237.31075,96.25 237.11075,96.53 236.74075,97.39 L228.88075,116.39 L227.70075,116.39 L219.10075,97.39 C218.74075,96.53 218.49075,96.25 217.03075,95.88 L217.03075,94.7 L227.03075,94.7 L227.03075,95.88 C224.95075,96.13 224.22075,96.29 224.22075,97.23 C224.239712,97.6203328 224.320727,98.0051537 224.46075,98.37 L229.63075,110.75 L234.56075,98.33 C234.730875,97.986742 234.829535,97.612516 234.85075,97.23 C234.85075,96.29 234.07075,96.17 232.00075,95.88 L232.00075,94.7 L238.84075,94.7 L238.82075,95.88 Z M256.82075,102.56 L256.82075,103.42 L243.44075,103.42 C243.19075,109.65 246.33075,113.19 250.44075,113.19 C252.960846,113.256491 255.311501,111.925351 256.55075,109.73 L257.08075,110.02 C256.246444,113.901165 252.737078,116.616595 248.77075,116.45 C242.91075,116.45 239.32075,111.93 239.32075,105.94 C239.32075,99.14 243.48075,94.29 248.89075,94.29 C254.13075,94.29 256.86075,97.84 256.86075,102.56 L256.82075,102.56 Z M243.54075,102.11 L252.54075,102.11 C252.54075,98.37 251.40075,95.68 248.47075,95.68 C245.54075,95.68 243.90075,98.45 243.58075,102.11 L243.54075,102.11 Z M266.44075,112.79 C266.44075,114.42 267.38075,114.7 269.99075,114.87 L269.99075,116.05 L259.14075,116.05 L259.14075,114.87 C261.14075,114.74 261.83075,114.46 261.83075,112.95 L261.83075,98.41 L259.26075,96.98 L259.26075,96.41 L265.86075,94.29 L266.55075,94.29 L266.44075,100.18 C268.56075,95.9 269.62075,94.31 271.98075,94.31 C272.604644,94.2785714 273.212265,94.5150706 273.65075,94.96 L273.65075,98.63 L272.96075,98.63 C270.47075,98.63 268.64075,98.79 266.44075,101.24 L266.44075,112.79 Z M276.06075,114.46 L275.81075,108.84 L277.11075,108.84 C278.11075,112.46 280.11075,115.19 283.23075,115.19 C285.55075,115.19 287.34075,114.01 287.34075,111.61 C287.34075,109.21 285.83075,108.39 282.34075,107.08 C278.14075,105.54 276.07075,103.95 276.07075,100.36 C276.07075,96.57 278.88075,94.29 283.15075,94.29 C285.402735,94.2443937 287.621622,94.8372526 289.55075,96 L289.55075,100.93 L288.37075,100.93 C287.64075,97.93 285.97075,95.56 283.03075,95.56 C280.79075,95.56 279.57075,96.86 279.57075,98.73 C279.57075,100.73 280.83075,101.73 284.25075,103.01 C288.41075,104.52 290.89075,106.19 290.89075,109.9 C290.89075,114.01 287.80075,116.45 283.11075,116.45 C280.59532,116.53618 278.114962,115.840981 276.01075,114.46 L276.06075,114.46 Z M300.95075,112.95 C300.95075,114.46 301.60075,114.74 303.64075,114.87 L303.64075,116.05 L293.70075,116.05 L293.70075,114.87 C295.70075,114.74 296.38075,114.46 296.38075,112.95 L296.38075,98.41 L293.82075,96.98 L293.82075,96.41 L300.29075,94.29 L300.95075,94.29 L300.95075,112.95 Z M295.65075,88.55 C295.639869,87.78024 295.940854,87.0388178 296.485211,86.4944609 C297.029568,85.9501041 297.77099,85.6491184 298.54075,85.66 C299.566102,85.6599999 300.513567,86.2070188 301.026243,87.095 C301.538919,87.9829811 301.538919,89.0770189 301.026243,89.965 C300.513567,90.8529812 299.566102,91.4000001 298.54075,91.4 C297.768624,91.4272111 297.018736,91.1386721 296.463997,90.6009142 C295.909257,90.0631563 295.59755,89.3225991 295.600726,88.55 L295.65075,88.55 Z M312.07075,94.7 L317.65075,94.7 L317.65075,96.37 L312.07075,96.37 L312.07075,109.85 C312.07075,112.62 313.07075,113.77 315.21075,113.77 C316.357211,113.768656 317.466131,113.361226 318.34075,112.62 L318.79075,113.24 C317.540817,115.229105 315.359958,116.440274 313.01075,116.45 C309.91075,116.45 307.55075,114.78 307.55075,110.34 L307.55075,96.34 L304.90075,96.34 L304.90075,95.61 C307.495386,94.1929714 309.640092,92.0759845 311.09075,89.5 L312.09075,89.5 L312.07075,94.7 Z M336.55075,98.37 C336.697848,98.0068399 336.782377,97.6213892 336.80075,97.23 C336.80075,96.29 336.06075,96.13 333.99075,95.88 L333.99075,94.7 L340.75075,94.7 L340.75075,95.88 C339.28075,96.25 339.00075,96.57 338.67075,97.39 L329.87075,120.12 C328.65075,123.22 327.39075,124.97 324.82075,124.97 C323.493359,125.022621 322.282712,124.215523 321.82075,122.97 L321.82075,121.42 C322.636497,121.673196 323.486651,121.79802 324.34075,121.79 C326.54075,121.79 327.93075,121.18 328.86075,118.65 L329.60075,116.65 L321.16075,97.34 C320.80075,96.48 320.55075,96.2 319.09075,95.83 L319.09075,94.7 L329.03075,94.7 L329.03075,95.88 C326.95075,96.13 326.22075,96.29 326.22075,97.23 C326.239712,97.6203328 326.320727,98.0051537 326.46075,98.37 L331.71075,111.37 L336.55075,98.37 Z M51.9607502,48.45 C59.3407502,48.45 68.4907502,45.5 74.9607502,41.81 L42.8107502,41.81 L42.8107502,47.57 C45.4607502,48.31 47.8107502,48.45 51.9607502,48.45 L51.9607502,48.45 Z M101.56075,66.45 C94.1807502,66.45 85.0307502,69.45 78.5607502,73.1 L110.71075,73.1 L110.71075,67.35 C107.720031,66.6112842 104.637769,66.3114795 101.56075,66.46 L101.56075,66.45 Z M110.71075,61.46 C107.503872,60.8262957 104.239279,60.5313427 100.97075,60.58 C90.9707502,60.58 83.8507502,64.42 76.6107502,67.66 C70.1207502,70.32 63.1807502,73.1300453 52.9907502,73.1300453 C49.5726779,73.1345287 46.1626064,72.7995512 42.8107502,72.13 L42.8107502,65.93 C46.0258482,66.5057189 49.2845545,66.8034857 52.5507502,66.82 C63.9207502,66.82 69.3807502,63.87 75.7307502,61.06 C83.4007502,57.81 90.4907502,54.12 101.27075,54.12 C104.443826,54.1204708 107.608,54.4556588 110.71075,55.12 L110.71075,61.46 Z M110.71075,49.06 C107.502828,48.4335991 104.238997,48.138715 100.97075,48.18 C90.6407502,48.18 83.5507502,51.43 75.9707502,54.67 C69.6207502,57.48 62.8307502,60.8700521 52.9707502,60.8700521 C49.5526619,60.8748587 46.1425579,60.539878 42.7907502,59.87 L42.7907502,53.47 C46.0058482,54.0457189 49.2645545,54.3434857 52.5307502,54.36 C62.1307502,54.36 68.9207502,50.82 75.1207502,48.01 C82.9407502,44.61 90.3207502,41.81 101.25075,41.81 C104.423814,41.8106938 107.587965,42.1458793 110.69075,42.81 L110.71075,49.06 Z M116.62075,87.74 C116.62075,109.75407 98.7748203,127.6 76.7607502,127.6 C54.7466801,127.6 36.9007502,109.75407 36.9007502,87.74 L36.9007502,35.91 L116.62075,35.91 L116.62075,87.74 Z M49.1507502,79.01 L42.8107502,79.01 L42.8107502,87.72 C42.7381435,94.8704279 44.9602587,101.855721 49.1507502,107.65 L49.1507502,79.01 Z M31,30 L31,87.72 C30.9311007,99.8386582 35.7137343,111.481275 44.2821219,120.051541 C52.8505095,128.621807 64.492077,133.406993 76.6107502,133.34 C88.7529723,133.436395 100.428017,128.665823 109.028216,120.093809 C117.628415,111.521795 122.437287,99.8624731 122.381243,87.72 L122.381243,30 L31,30 Z M67.4407502,120.35 C69.4857676,121.061426 71.6266754,121.459264 73.7907502,121.53 L73.7907502,79.01 L67.4407502,79.01 L67.4407502,120.35 Z M55.0407502,114 C57.0610034,115.613814 59.2425853,117.014584 61.5507502,118.18 L61.5507502,79.01 L55.0607502,79.01 L55.0407502,114 Z M108.04075,79 L82.2207502,79 L95.2207502,85.05 L108.04075,79 Z M79.7107502,84.33 L79.7107502,91.41 L95.2107502,98.5 L110.71075,91.56 L110.71075,84.33 L95.2107502,91.56 L79.7107502,84.33 Z M79.7107502,97.91 L79.7107502,104.99 L95.2107502,112.08 L104.07075,108.08 C106.228924,105.215666 107.916763,102.02565 109.07075,98.63 L95.2107502,105.18 L79.7107502,97.91 Z M79.7107502,121.53 C84.4247255,121.170292 89.0072339,119.80645 93.1507502,117.53 L79.7107502,111.53 L79.7107502,121.53 Z" id="path-1"></path>
    </defs>
    <g id="CSU-Logo" stroke="none" stroke-width="1" fill="none" fill-rule="evenodd">
        <mask id="mask-2" fill="white">
            <use xlink:href="#path-1"></use>
        </mask>
        <use id="Mask" fill="#F0D92A" fill-rule="nonzero" xlink:href="#path-1"></use>
        <g id="Group" mask="url(#mask-2)">
            <g transform="translate(-0.849250, 0.000000)" id="Colour">
                <rect id="Rectangle-Copy-4" fill="#F0572A" x="0" y="0" width="421" height="164"></rect>
            </g>
        </g>
    </g>
</svg>