<?xml version="1.0" encoding="UTF-8"?>
<svg width="164px" height="142px" viewBox="0 0 164 142" version="1.1" xmlns="http://www.w3.org/2000/svg" xmlns:xlink="http://www.w3.org/1999/xlink">
    <title>logo/single copy 2</title>
    <defs>
        <path d="M67.244411,144.654852 L70.4658749,154.157736 L70.513036,154.157736 L73.829729,144.654852 L76.5124685,144.654852 L76.5124685,156.6 L74.6867908,156.6 L74.6867908,150.606879 C74.6875844,150.097763 74.699488,149.464228 74.720679,148.705648 L74.7303241,148.372885 C74.7560964,147.526186 74.7780583,146.976917 74.7990041,146.722918 L74.8046935,146.660965 L74.8065074,146.640418 L74.7421144,146.640418 L71.2594506,156.6 L69.5852326,156.6 L66.2213785,146.624541 L66.1578924,146.624541 L66.1751244,146.919667 C66.2338943,147.93804 66.2706074,148.912181 66.2852636,149.841613 L66.2921201,150.530296 L66.293027,150.790866 L66.293027,156.6 L64.5716479,156.6 L64.5716479,144.654852 L67.244411,144.654852 Z M57.4071556,144.654852 L57.4071556,156.6 L55.6160325,156.6 L55.6160325,144.654852 L57.4071556,144.654852 Z M49.0485812,144.654852 L49.0485812,146.330348 L45.5451415,146.330348 L45.5451415,156.6 L43.5964056,156.6 L43.5964056,146.330348 L40.0929658,146.330348 L40.0929658,144.654852 L49.0485812,144.654852 Z M76.3100321,15.05 L76.5124685,138.682278 L39.9912834,138.682278 L39.9912834,51.1792801 L76.3100321,15.05 Z M165.866283,15.6472574 L105.180467,76.3833389 L80.6917556,52.1076726 L117.194462,15.6472574 L165.866283,15.6472574 Z" id="path-1"></path>
        <path d="M144.88974,154.564046 C143.910518,153.524318 143.419489,152.04509 143.419489,150.127268 L143.419489,150.127268 C143.419489,148.211263 143.912411,146.738391 144.897309,145.711376 L144.897309,145.711376 C145.882207,144.683453 147.288124,144.169492 149.115058,144.169492 L149.115058,144.169492 C150.912663,144.169492 152.303441,144.691626 153.286447,145.734986 L153.286447,145.734986 C154.267561,146.778346 154.758591,148.247586 154.758591,150.143614 L154.758591,150.143614 C154.758591,152.034193 154.267561,153.503433 153.280771,154.553149 L153.280771,154.553149 C152.297765,155.60105 150.902255,156.125 149.098028,156.125 L149.098028,156.125 C147.271094,156.125 145.868962,155.60559 144.88974,154.564046 L144.88974,154.564046 Z M158.33936,144.169492 L161.708925,144.169492 L161.826468,144.170426 C163.307883,144.184448 164.406816,144.474221 165.128866,145.036944 L165.128866,145.036944 C165.86864,145.613687 166.238061,146.486748 166.238061,147.653321 L166.238061,147.653321 C166.238061,149.115277 165.493622,150.165006 164.001946,150.800639 L164.001946,150.800639 L163.920785,150.83429 L167.291283,156.125 L165.071027,156.125 L162.21548,151.350275 L160.289081,151.350275 L160.289081,156.125 L158.33936,156.125 L158.33936,144.169492 Z M108.96737,144.169492 L111.029675,144.169492 L115.37013,156.125 L113.354076,156.125 L112.195957,152.818454 L107.762091,152.818454 L106.627551,156.125 L104.627822,156.125 L108.96737,144.169492 Z M130.290001,144.169492 L133.920001,144.169492 L134.035677,144.170426 C135.848841,144.190991 137.263567,144.702302 138.280775,145.706228 L138.280775,145.706228 C139.319099,146.730719 139.838719,148.173045 139.838719,150.032271 L139.838719,150.032271 C139.838719,152.005537 139.299819,153.514231 138.224774,154.558352 L138.224774,154.558352 C137.169926,155.580973 135.660639,156.103501 133.695077,156.124065 L133.695077,156.124065 L133.573894,156.125 L130.290001,156.125 L130.290001,144.169492 Z M118.950899,144.169492 L122.324326,144.169492 L122.439767,144.170426 C123.847041,144.185382 124.905246,144.490112 125.61438,145.084616 L125.61438,145.084616 C126.344587,145.695945 126.709232,146.595179 126.709232,147.783252 L126.709232,147.783252 C126.709232,149.032084 126.307939,149.988338 125.507185,150.653883 L125.507185,150.653883 C124.725671,151.301667 123.624406,151.63444 122.20064,151.651266 L122.20064,151.651266 L122.084283,151.6522 L120.865745,151.6522 L120.865745,156.125 L118.950899,156.125 L118.950899,144.169492 Z M93.8855141,144.169492 L95.880555,144.169492 L95.880555,154.448051 L101.047053,154.448051 L101.047053,156.125 L93.8855141,156.125 L93.8855141,144.169492 Z M83.4954523,149.598545 C83.8676851,149.135842 84.2408347,148.686225 84.6121507,148.24876 L84.6121507,148.24876 L84.8340234,147.987963 L88.0025861,144.169492 L90.1837234,144.169492 L90.078288,144.295683 C88.1208571,146.640047 86.7043555,148.328214 85.8269497,149.355509 L85.8269497,149.355509 L85.7811082,149.411594 L90.3047449,156.125 L88.0832671,156.125 L84.4012799,150.710903 L83.2699123,151.6522 L83.2699123,156.125 L81.3528218,156.125 L81.3528218,144.169492 L83.2699123,144.169492 L83.2699123,149.877102 L83.4954523,149.598545 Z M146.119546,147.100013 C145.51373,147.858454 145.209873,148.970399 145.209873,150.437717 L145.209873,150.437717 C145.209873,151.909711 145.512781,153.027266 146.116697,153.787578 L146.116697,153.787578 C146.719664,154.548826 147.613195,154.929449 148.799188,154.929449 L148.799188,154.929449 C149.978535,154.929449 150.868267,154.552566 151.469335,153.800671 L151.469335,153.800671 C152.070403,153.046905 152.371412,151.926544 152.371412,150.437717 L152.371412,150.437717 C152.371412,148.970399 152.073252,147.858454 151.477881,147.100013 L151.477881,147.100013 C150.88251,146.341571 149.995627,145.962818 148.81628,145.962818 L148.81628,145.962818 C147.625539,145.962818 146.726311,146.341571 146.119546,147.100013 L146.119546,147.100013 Z M160.129745,145.962818 L160.129745,150.147246 L161.565103,150.147246 C162.52794,150.147246 163.225848,149.966097 163.658828,149.604801 L163.658828,149.604801 C164.090819,149.243505 164.307309,148.705064 164.307309,147.993481 L164.307309,147.993481 C164.307309,147.269889 164.073025,146.750463 163.606435,146.435205 L163.606435,146.435205 C163.138856,146.119947 162.436005,145.962818 161.495905,145.962818 L161.495905,145.962818 L160.129745,145.962818 Z M132.080386,145.962818 L132.080386,154.331674 L133.533766,154.331674 C136.54413,154.331674 138.048335,152.922438 138.048335,150.103968 L138.048335,150.103968 C138.048335,147.343201 136.648711,145.962818 133.850441,145.962818 L133.850441,145.962818 L132.080386,145.962818 Z M120.741283,145.962818 L120.741283,150.147246 L121.83955,150.147246 C122.90124,150.147246 123.67922,149.973244 124.175466,149.62617 L124.175466,149.62617 C124.671713,149.279096 124.918847,148.735688 124.918847,147.998737 L124.918847,147.998737 C124.918847,147.313894 124.697415,146.803984 124.253561,146.467145 L124.253561,146.467145 C123.809707,146.131237 123.116742,145.962818 122.17763,145.962818 L122.17763,145.962818 L120.741283,145.962818 Z M109.981677,145.962818 L110.008443,146.065395 C110.067718,146.285968 110.161388,146.599079 110.288243,147.005325 L110.288243,147.005325 L110.31323,147.087628 L110.339178,147.168039 L110.395477,147.343919 C110.486241,147.625095 110.561654,147.846488 110.621718,148.008099 L110.621718,148.008099 L110.638056,148.048778 L111.78936,151.342797 L108.208591,151.342797 L109.31665,148.188788 L109.379116,148.017559 C109.639553,147.277777 109.841368,146.592863 109.981677,145.962818 L109.981677,145.962818 Z M81.3528218,52.1398151 L105.539069,76.1228729 L166.492233,138.789513 L118.649594,138.789513 L81.4474552,100.57857 L81.3528218,52.1398151 Z M76.9729049,15.05 L40.66913,51.8083927 L4.36628338,51.8083927 L4.36628338,15.05 L76.9729049,15.05 Z" id="path-3"></path>
    </defs>
    <g id="Site" stroke="none" stroke-width="1" fill="none" fill-rule="evenodd">
        <g id="Apple-TV-Copy" transform="translate(-79.000000, -90.000000)">
            <g id="logo/single-copy-2" transform="translate(75.000000, 75.000000)">
                <mask id="mask-2" fill="white">
                    <use xlink:href="#path-1"></use>
                </mask>
                <g id="Combined-Shape" opacity="0.804710751"></g>
                <g id="Group" mask="url(#mask-2)" fill="#344955" fill-rule="nonzero">
                    <g id="Dark">
                        <rect id="Rectangle-Copy-3" x="0" y="1.12028905e-13" width="172" height="171.894801"></rect>
                    </g>
                </g>
                <mask id="mask-4" fill="white">
                    <use xlink:href="#path-3"></use>
                </mask>
                <g id="Klapdor"></g>
                <g id="Group" mask="url(#mask-4)" fill="#344955" fill-rule="nonzero" opacity="0.8">
                    <g id="Light">
                        <rect id="Rectangle-Copy-3" x="0" y="1.12028905e-13" width="172" height="171.894801"></rect>
                    </g>
                </g>
            </g>
        </g>
    </g>
</svg>