<?xml version="1.0" encoding="UTF-8"?>
<svg width="450px" height="250px" viewBox="0 0 450 250" version="1.1" xmlns="http://www.w3.org/2000/svg" xmlns:xlink="http://www.w3.org/1999/xlink">
    <title>Group 4</title>
    <defs>
        <path d="M124.280888,34.4534146 L124.280888,38.86 L123.354531,38.86 C122.696888,35.5426829 120.879531,33.8168293 117.994388,33.8168293 C113.822245,33.8168293 111.806888,37.8768293 111.806888,42.8068293 C111.806888,48.1965854 114.076816,52.4617073 118.256031,52.4617073 C121.141173,52.4617073 122.979745,50.7853659 123.913173,46.6687805 L124.917316,46.6687805 L124.514245,51.91 C122.571563,53.0518648 120.345578,53.6207588 118.093388,53.5509756 C111.983673,53.5509756 108.150959,49.5192683 108.150959,43.6131707 C108.150959,36.9856098 112.393816,32.7487805 117.973173,32.7487805 C120.19665,32.6920578 122.388499,33.2843961 124.280888,34.4534146 L124.280888,34.4534146 Z M127.936816,33.5268293 L126.119459,32.5507317 L126.119459,32.1192683 L130.701745,30.7046341 L131.133102,30.7046341 L131.133102,40.642439 C132.434245,39.1782927 134.103102,37.8768293 136.408388,37.8768293 C139.088459,37.8768293 140.410816,39.4612195 140.410816,42.6017073 L140.410816,51.0541463 C140.410816,52.1221951 140.870459,52.3202439 142.313031,52.4121951 L142.313031,53.2468293 L135.284031,53.2468293 L135.284031,52.4687805 C136.698316,52.3768293 137.186245,52.1787805 137.186245,51.1107317 L137.186245,42.6653659 C137.186245,40.7343902 136.408388,39.8360976 134.767816,39.8360976 C133.419484,39.9242949 132.139676,40.4622457 131.133102,41.3639024 L131.133102,51.0541463 C131.133102,52.1221951 131.564459,52.3202439 133.007031,52.4121951 L133.007031,53.2468293 L126.006316,53.2468293 L126.006316,52.4687805 C127.420602,52.3768293 127.908531,52.1787805 127.908531,51.1107317 L127.936816,33.5268293 Z M155.133531,50.0639024 C155.133531,51.2168293 155.359816,51.825122 156.165959,51.825122 C156.599526,51.8144132 157.025034,51.7055919 157.410531,51.5068293 L157.580245,52.0302439 C156.890932,52.9986623 155.770347,53.5670234 154.581959,53.5509756 C153.082816,53.5509756 152.191816,52.574878 151.965531,50.9904878 C150.982602,52.1717073 149.426888,53.5226829 147.411531,53.5226829 C145.106245,53.5226829 143.635388,52.1080488 143.635388,49.8658537 C143.635388,47.4185366 145.424459,46.4070732 147.673173,45.572439 L151.916031,44.0163415 L151.916031,41.8590244 C151.916031,40.0482927 151.258388,38.7185366 149.525888,38.7185366 C147.998459,38.7185366 147.369102,39.7865854 147.369102,41.2295122 C147.381116,41.7740833 147.457065,42.3153559 147.595388,42.8421951 L145.693173,43.1039024 C144.944677,42.9011938 144.440297,42.201968 144.483959,41.427561 C144.483959,39.15 146.845816,37.8909756 149.872388,37.8909756 C153.330316,37.8909756 155.147673,39.3056098 155.147673,42.4460976 L155.133531,50.0639024 Z M151.901888,50.3256098 L151.901888,44.907561 L148.882388,46.1453659 C147.524673,46.6687805 146.760959,47.4185366 146.760959,48.9746341 C146.760959,50.5307317 147.538816,51.5917073 149.151102,51.5917073 C150.148173,51.5917073 150.933102,51.1319512 151.901888,50.3468293 L151.901888,50.3256098 Z M163.513173,50.9621951 C163.513173,52.115122 164.177888,52.3131707 166.023531,52.4334146 L166.023531,53.2680488 L158.386388,53.2680488 L158.386388,52.4687805 C159.800673,52.3768293 160.288602,52.1787805 160.288602,51.1107317 L160.288602,40.7909756 L158.471245,39.7795122 L158.471245,39.3763415 L163.138388,37.8768293 L163.633388,37.8768293 L163.513173,42.0287805 C165.012316,39.0014634 165.761888,37.8768293 167.430745,37.8768293 C167.869789,37.8508959 168.299149,38.0129101 168.611673,38.322439 L168.611673,40.9182927 L168.123745,40.9182927 C166.370031,40.9182927 165.068888,41.0314634 163.513173,42.7643902 L163.513173,50.9621951 Z M174.749673,51.0753659 C174.749673,52.1434146 175.209316,52.3414634 176.651888,52.4334146 L176.651888,53.2680488 L169.622888,53.2680488 L169.622888,52.4687805 C171.037173,52.3768293 171.525102,52.1787805 171.525102,51.1107317 L171.525102,33.5268293 L169.707745,32.5507317 L169.707745,32.1192683 L174.261745,30.7046341 L174.749673,30.7046341 L174.749673,51.0753659 Z M190.363388,43.7263415 L190.363388,44.3346341 L180.887673,44.3346341 C180.710888,48.7412195 182.931316,51.2521951 185.837673,51.2521951 C187.620446,51.2946436 189.281543,50.3510386 190.158316,48.7978049 L190.533102,49.0029268 C189.943128,51.7481409 187.461505,53.6688111 184.656745,53.5509756 C180.505816,53.5509756 177.967173,50.3539024 177.967173,46.1170732 C177.967173,41.3073171 180.908888,37.8768293 184.741602,37.8768293 C188.411673,37.8768293 190.363388,40.3878049 190.363388,43.7263415 L190.363388,43.7263415 Z M180.972531,43.4080488 L187.336816,43.4080488 C187.336816,40.7626829 186.530673,38.86 184.458745,38.86 C182.386816,38.86 181.205888,40.8192683 180.972531,43.4080488 L180.972531,43.4080488 Z M192.753531,52.1434146 L192.583816,48.1682927 L193.503102,48.1682927 C194.210245,50.7287805 195.624531,52.6597561 197.823745,52.6597561 C199.464316,52.6597561 200.737173,51.825122 200.737173,50.127561 C200.737173,48.43 199.669388,47.85 197.201459,46.9234146 C194.231459,45.8341463 192.760602,44.7095122 192.760602,42.1702439 C192.760602,39.4895122 194.747673,37.8768293 197.774245,37.8768293 C199.36672,37.8445712 200.93579,38.2639104 202.299959,39.0863415 L202.299959,42.5663415 L201.465531,42.5663415 C200.942245,40.4443902 199.761316,38.7680488 197.689388,38.7680488 C196.105388,38.7680488 195.242673,39.687561 195.242673,41.0102439 C195.242673,42.424878 196.133673,43.1321951 198.552102,44.037561 C201.515031,45.1126829 203.261673,46.2939024 203.261673,48.9321951 C203.261673,51.8392683 201.076602,53.565122 197.760102,53.565122 C195.984891,53.6166421 194.236863,53.1202574 192.753531,52.1434146 L192.753531,52.1434146 Z M211.881745,51.6836585 L211.683745,46.732439 L212.687888,46.732439 C213.352602,50.3326829 215.169959,52.4970732 218.076316,52.4970732 C220.614959,52.4970732 222.142388,51.082439 222.142388,48.9604878 C222.142388,46.6829268 220.869531,45.7917073 217.241888,44.3487805 C214.102173,43.1109756 211.881745,41.7246341 211.881745,38.3578049 C211.881745,35.1253659 214.335531,32.7346341 218.246031,32.7346341 C220.328935,32.6804941 222.378842,33.2628012 224.122388,34.4039024 L224.122388,38.6973171 L223.167745,38.6973171 C222.708102,35.5002439 221.010959,33.7460976 218.217745,33.7460976 C216.053888,33.7460976 214.759816,35.0970732 214.759816,36.9997561 C214.759816,39.1217073 215.792245,39.9704878 219.002673,41.2082927 C222.884888,42.7643902 225.077031,44.2356098 225.077031,47.6307317 C225.077031,51.4360976 221.909031,53.5085366 218.104602,53.5085366 C215.885301,53.6080741 213.695989,52.9660493 211.881745,51.6836585 L211.881745,51.6836585 Z M231.589816,38.1668293 L235.535673,38.1668293 L235.535673,39.3480488 L231.589816,39.3480488 L231.589816,48.8826829 C231.589816,50.8419512 232.296959,51.6553659 233.810245,51.6553659 C234.620957,51.6544152 235.405121,51.3662327 236.023602,50.8419512 L236.341816,51.2804878 C235.457935,52.6874158 233.915756,53.5440961 232.254531,53.5509756 C230.062388,53.5509756 228.393531,52.3697561 228.393531,49.2292683 L228.393531,39.3268293 L226.519602,39.3268293 L226.519602,38.8104878 C228.35438,37.8081993 229.870993,36.3108183 230.896816,34.4887805 L231.603959,34.4887805 L231.589816,38.1668293 Z M250.887745,50.3468293 C250.887745,51.33 250.951388,51.5846341 252.160602,51.704878 L252.910173,51.7614634 L252.910173,52.5112195 L248.151102,53.5439024 L247.578316,53.5439024 L247.691459,50.8065854 C246.369102,52.2212195 244.862888,53.5439024 242.706102,53.5439024 C240.202816,53.5439024 238.675388,52.1292683 238.675388,48.967561 L238.675388,41.1870732 C238.675388,40.1756098 238.442031,39.8290244 237.204531,39.6309756 L236.744888,39.5743902 L236.744888,38.7963415 L241.553459,37.8697561 L242.020173,37.8697561 L241.871673,41.1587805 L241.871673,48.4512195 C241.871673,50.4104878 242.578816,51.535122 244.290102,51.535122 C245.549921,51.4563486 246.74721,50.9583926 247.691459,50.1204878 L247.691459,41.222439 C247.691459,40.2109756 247.493459,39.8643902 246.220602,39.6663415 L245.789245,39.6097561 L245.789245,38.8317073 L250.541245,37.905122 L251.007959,37.905122 L250.887745,41.0809756 L250.887745,50.3468293 Z M259.302745,50.955122 C259.302745,52.1080488 259.967459,52.3060976 261.806031,52.4263415 L261.806031,53.2609756 L254.175959,53.2609756 L254.175959,52.4687805 C255.590245,52.3768293 256.078173,52.1787805 256.078173,51.1107317 L256.078173,40.7909756 L254.260816,39.7795122 L254.260816,39.3763415 L258.927959,37.8768293 L259.415888,37.8768293 L259.302745,42.0287805 C260.801888,39.0014634 261.551459,37.8768293 263.220316,37.8768293 C263.660913,37.8581746 264.089188,38.0249099 264.401245,38.3365854 L264.401245,40.932439 L263.913316,40.932439 C262.152531,40.932439 260.858459,41.0456098 259.302745,42.7785366 L259.302745,50.955122 Z M270.440245,38.1668293 L274.386102,38.1668293 L274.386102,39.3480488 L270.440245,39.3480488 L270.440245,48.8826829 C270.440245,50.8419512 271.147388,51.6553659 272.653602,51.6553659 C273.46642,51.6542546 274.252758,51.3661934 274.874031,50.8419512 L275.192245,51.2804878 C274.316466,52.6747927 272.793493,53.5296783 271.147388,53.5509756 C268.962316,53.5509756 267.286388,52.3697561 267.286388,49.2292683 L267.286388,39.3268293 L265.419531,39.3268293 L265.419531,38.8104878 C267.22801,37.804497 268.721425,36.3156113 269.733102,34.51 L270.440245,34.51 L270.440245,38.1668293 Z M113.390888,74.8765854 C113.390888,78.5121951 115.088031,80.6695122 118.227745,80.6695122 C121.763459,80.6695122 123.990959,78.9153659 123.990959,74.6785366 L123.990959,64.7760976 C123.990959,63.1634146 123.587888,62.9370732 121.162388,62.7036585 L121.162388,61.854878 L127.696388,61.854878 L127.696388,62.7178049 C125.624459,62.9795122 125.249673,63.177561 125.249673,64.7902439 L125.249673,75.194878 C125.249673,80.0612195 121.968531,82.3670732 117.845888,82.3670732 C113.009031,82.3670732 109.982459,80.0612195 109.982459,75.11 L109.982459,64.7619512 C109.982459,63.1492683 109.607673,62.9795122 107.535745,62.7178049 L107.535745,61.854878 L115.802245,61.854878 L115.802245,62.7178049 C113.680816,62.9795122 113.355531,63.1492683 113.355531,64.7619512 L113.390888,74.8765854 Z M139.555173,71.4814634 C139.555173,69.5504878 138.777316,68.6521951 137.136745,68.6521951 C135.799268,68.7371346 134.528033,69.2646651 133.523245,70.1517073 L133.523245,79.8914634 C133.523245,80.9595122 133.982888,81.157561 135.397173,81.2495122 L135.397173,82.0841463 L128.396459,82.0841463 L128.396459,81.2495122 C129.810745,81.157561 130.298673,80.9595122 130.298673,79.8914634 L130.298673,69.6070732 L128.481316,68.5956098 L128.481316,68.192439 L133.148459,66.6929268 L133.643459,66.6929268 L133.523245,69.4443902 C134.824388,67.9802439 136.493245,66.6787805 138.798531,66.6787805 C141.478602,66.6787805 142.800959,68.2065854 142.800959,71.3187805 L142.800959,79.8773171 C142.800959,80.9453659 143.260602,81.1434146 144.703173,81.2353659 L144.703173,82.07 L137.674173,82.07 L137.674173,81.2495122 C139.088459,81.157561 139.576388,80.9595122 139.576388,79.8914634 L139.555173,71.4814634 Z M151.074531,79.8914634 C151.074531,80.9595122 151.541245,81.157561 152.976745,81.2495122 L152.976745,82.0841463 L145.983102,82.0841463 L145.983102,81.2495122 C147.397388,81.157561 147.885316,80.9595122 147.885316,79.8914634 L147.885316,69.6070732 L146.053816,68.5956098 L146.053816,68.192439 L150.636102,66.6929268 L151.095745,66.6929268 L151.074531,79.8914634 Z M147.333745,62.6329268 C147.32605,62.0884625 147.53889,61.5640419 147.923828,61.179009 C148.308766,60.793976 148.833057,60.5810837 149.377388,60.5887805 C150.102458,60.5887804 150.772451,60.9756962 151.134986,61.6037805 C151.497522,62.2318647 151.497522,63.0056963 151.134986,63.6337805 C150.772451,64.2618647 150.102458,64.6487805 149.377388,64.6487805 C148.841083,64.6525617 148.325546,64.4416202 147.945649,64.0629576 C147.565751,63.6842951 147.353057,63.1693735 147.354959,62.6329268 L147.333745,62.6329268 Z M168.880388,67.817561 C167.812602,68.0792683 167.671173,68.2773171 167.409531,68.8856098 L161.851388,82.3246341 L161.016959,82.3246341 L154.935531,68.8856098 C154.680959,68.2773171 154.504173,68.0792683 153.471745,67.817561 L153.471745,66.9829268 L160.543173,66.9829268 L160.543173,67.817561 C159.072316,67.9943902 158.556102,68.107561 158.556102,68.772439 C158.569511,69.0485281 158.6268,69.3207185 158.725816,69.5787805 L162.381745,78.3353659 L165.867959,69.5504878 C165.988262,69.3076956 166.058028,69.0429991 166.073031,68.772439 C166.073031,68.107561 165.521459,68.0226829 164.057673,67.817561 L164.057673,66.9829268 L168.894531,66.9829268 L168.880388,67.817561 Z M181.608959,72.542439 L181.608959,73.1507317 L172.147388,73.1507317 C171.970602,77.5573171 174.191031,80.0612195 177.097388,80.0612195 C178.879455,80.1082498 180.541704,79.1667114 181.418031,77.6139024 L181.792816,77.8190244 C181.202842,80.5642384 178.721219,82.4849087 175.916459,82.3670732 C171.772602,82.3670732 169.233959,79.17 169.233959,74.9331707 C169.233959,70.1234146 172.175673,66.6929268 176.001316,66.6929268 C179.706745,66.6929268 181.637245,69.2039024 181.637245,72.542439 L181.608959,72.542439 Z M172.218102,72.2241463 L178.582388,72.2241463 C178.582388,69.5787805 177.776245,67.6760976 175.704316,67.6760976 C173.632388,67.6760976 172.472673,69.6353659 172.246388,72.2241463 L172.218102,72.2241463 Z M188.411673,79.7782927 C188.411673,80.9312195 189.076388,81.1292683 190.922031,81.2495122 L190.922031,82.0841463 L183.249531,82.0841463 L183.249531,81.2495122 C184.663816,81.157561 185.151745,80.9595122 185.151745,79.8914634 L185.151745,69.6070732 L183.334388,68.5956098 L183.334388,68.192439 L188.001531,66.6929268 L188.489459,66.6929268 L188.411673,70.8590244 C189.910816,67.8317073 190.660388,66.7070732 192.329245,66.7070732 C192.770427,66.6848432 193.200102,66.8521231 193.510173,67.1668293 L193.510173,69.7626829 L193.022245,69.7626829 C191.261459,69.7626829 189.967388,69.8758537 188.411673,71.6087805 L188.411673,79.7782927 Z M195.214388,80.9595122 L195.037602,76.9843902 L195.956888,76.9843902 C196.664031,79.544878 198.078316,81.4758537 200.284602,81.4758537 C201.925173,81.4758537 203.190959,80.6412195 203.190959,78.9436585 C203.190959,77.2460976 202.123173,76.6660976 199.655245,75.7395122 C196.685245,74.6502439 195.221459,73.5256098 195.221459,70.9863415 C195.221459,68.3056098 197.208531,66.6929268 200.228031,66.6929268 C201.820506,66.6606687 203.389576,67.080008 204.753745,67.902439 L204.753745,71.3895122 L203.919316,71.3895122 C203.403102,69.267561 202.222173,67.5912195 200.143173,67.5912195 C198.559173,67.5912195 197.696459,68.5107317 197.696459,69.8334146 C197.696459,71.2480488 198.587459,71.9553659 201.005888,72.8607317 C203.947602,73.9287805 205.701316,75.11 205.701316,77.7341463 C205.701316,80.6412195 203.516245,82.3670732 200.199745,82.3670732 C198.420976,82.4280301 196.667009,81.9363039 195.179031,80.9595122 L195.214388,80.9595122 Z M212.815173,79.8914634 C212.815173,80.9595122 213.274816,81.157561 214.717388,81.2495122 L214.717388,82.0841463 L207.688388,82.0841463 L207.688388,81.2495122 C209.102673,81.157561 209.583531,80.9595122 209.583531,79.8914634 L209.583531,69.6070732 L207.773245,68.5956098 L207.773245,68.192439 L212.348459,66.6929268 L212.815173,66.6929268 L212.815173,79.8914634 Z M209.067316,62.6329268 C209.059621,62.0884625 209.272461,61.5640419 209.657399,61.179009 C210.042337,60.793976 210.566629,60.5810837 211.110959,60.5887805 C211.83603,60.5887804 212.506022,60.9756962 212.868558,61.6037805 C213.231093,62.2318647 213.231093,63.0056963 212.868558,63.6337805 C212.506022,64.2618647 211.83603,64.6487805 211.110959,64.6487805 C210.564955,64.6680273 210.034678,64.4639388 209.642398,64.0835734 C209.250117,63.7032081 209.029696,63.1793994 209.031942,62.6329268 L209.067316,62.6329268 Z M220.678602,66.9829268 L224.624459,66.9829268 L224.624459,68.1641463 L220.678602,68.1641463 L220.678602,77.6987805 C220.678602,79.6580488 221.385745,80.4714634 222.899031,80.4714634 C223.709742,80.4705128 224.493907,80.1823303 225.112388,79.6580488 L225.430602,80.0965854 C224.54672,81.5035133 223.004542,82.3601937 221.343316,82.3670732 C219.151173,82.3670732 217.482316,81.1858537 217.482316,78.0453659 L217.482316,68.1429268 L215.608388,68.1429268 L215.608388,67.6265854 C217.443166,66.6242968 218.959779,65.1269158 219.985602,63.304878 L220.692745,63.304878 L220.678602,66.9829268 Z M237.989459,69.5787805 C238.093478,69.3219112 238.153252,69.0492753 238.166245,68.772439 C238.166245,68.107561 237.642959,67.9943902 236.179173,67.817561 L236.179173,66.9829268 L240.959459,66.9829268 L240.959459,67.817561 C239.919959,68.0792683 239.721959,68.3056098 239.488602,68.8856098 L233.265745,84.9629268 C232.403031,87.1556098 231.512031,88.3934146 229.694673,88.3934146 C228.756018,88.4306342 227.899918,87.85976 227.573245,86.9787805 L227.573245,85.882439 C228.150094,86.0615291 228.751274,86.1498194 229.355245,86.1441463 C230.910959,86.1441463 231.893888,85.7126829 232.551531,83.9231707 L233.074816,82.5085366 L227.106531,68.8502439 C226.851959,68.2419512 226.675173,68.0439024 225.642745,67.7821951 L225.642745,66.9829268 L232.671745,66.9829268 L232.671745,67.817561 C231.200888,67.9943902 230.684673,68.107561 230.684673,68.772439 C230.698082,69.0485281 230.755371,69.3207185 230.854388,69.5787805 L234.566888,78.7739024 L237.989459,69.5787805 Z M36.7436734,34.2695122 C41.9623876,34.2695122 48.4327448,32.1829268 53.0079591,29.5729268 L30.2733162,29.5729268 L30.2733162,33.6470732 C32.1472448,34.1704878 33.8090305,34.2695122 36.7436734,34.2695122 L36.7436734,34.2695122 Z M71.8179591,47.0012195 C66.5992448,47.0012195 60.1288876,49.1231707 55.5536734,51.704878 L78.2883162,51.704878 L78.2883162,47.6378049 C76.1734504,47.1152985 73.993851,46.9032416 71.8179591,47.0082927 L71.8179591,47.0012195 Z M78.2883162,43.4717073 C76.0205954,43.0234774 73.7120615,42.8148521 71.4007448,42.8492683 C64.3293162,42.8492683 59.2944591,45.5653659 54.1747448,47.8570732 C49.5853876,49.7385366 44.6778162,51.7261296 37.4720305,51.7261296 C35.0549651,51.7293008 32.6435574,51.4923655 30.2733162,51.0187805 L30.2733162,46.6334146 C32.5468498,47.0406305 34.8512207,47.251246 37.1608876,47.2629268 C45.2011019,47.2629268 49.0621019,45.1763415 53.5524591,43.1887805 C58.9762448,40.89 63.9898876,38.28 71.6128876,38.28 C73.8567053,38.280333 76.0942285,38.5174172 78.2883162,38.9873171 L78.2883162,43.4717073 Z M78.2883162,34.7009756 C76.0198569,34.2579115 73.7118624,34.049335 71.4007448,34.0785366 C64.0959591,34.0785366 59.0823162,36.3773171 53.7221734,38.6690244 C49.2318162,40.6565854 44.4303162,43.0544271 37.4578876,43.0544271 C35.0408109,43.0578269 32.6293802,42.8208893 30.2591734,42.3470732 L30.2591734,37.8202439 C32.5327069,38.2274597 34.8370778,38.4380753 37.1467448,38.4497561 C43.9353162,38.4497561 48.7368162,35.9458537 53.1211019,33.9582927 C58.6509591,31.5534146 63.8696734,29.5729268 71.5987448,29.5729268 C73.8425541,29.5734176 76.0800608,29.8105 78.2741734,30.2802439 L78.2883162,34.7009756 Z M82.4675305,62.06 C82.4675305,77.6309277 69.8479087,90.2536585 54.2808162,90.2536585 C38.7137238,90.2536585 26.0941019,77.6309277 26.0941019,62.06 L26.0941019,25.3997561 L82.4675305,25.3997561 L82.4675305,62.06 Z M34.7566019,55.885122 L30.2733162,55.885122 L30.2733162,62.0458537 C30.2219729,67.1034734 31.7933258,72.0442903 34.7566019,76.1426829 L34.7566019,55.885122 Z M21.9214286,21.2195122 L21.9214286,62.0458537 C21.8727069,70.6175875 25.2547121,78.8526088 31.3137862,84.9145044 C37.3728603,90.9764 45.6051116,94.3610437 54.1747448,94.3136585 C62.7610304,94.3818406 71.0169548,91.0075332 77.0985241,84.9444013 C83.1800935,78.8812695 86.5806527,70.6344322 86.5410219,62.0458537 L86.5410219,21.2195122 L21.9214286,21.2195122 Z M47.6902448,85.1256098 C49.1363642,85.6288136 50.6502919,85.9102112 52.1806019,85.9602439 L52.1806019,55.885122 L47.6902448,55.885122 L47.6902448,85.1256098 Z M38.9216734,80.6341463 C40.350281,81.7756247 41.892971,82.7664132 43.5251734,83.5907317 L43.5251734,55.885122 L38.9358162,55.885122 L38.9216734,80.6341463 Z M76.4002448,55.8780488 L58.1418162,55.8780488 L67.3346734,60.1573171 L76.4002448,55.8780488 Z M56.3668876,59.6480488 L56.3668876,64.6558537 L67.3276019,69.6707317 L78.2883162,64.7619512 L78.2883162,59.6480488 L67.3276019,64.7619512 L56.3668876,59.6480488 Z M56.3668876,69.2534146 L56.3668876,74.2612195 L67.3276019,79.2760976 L73.5928876,76.4468293 C75.1190249,74.4208366 76.3125681,72.1644842 77.1286019,69.7626829 L67.3276019,74.3956098 L56.3668876,69.2534146 Z M56.3668876,85.9602439 C59.7003416,85.7058164 62.9408297,84.7411478 65.8708876,83.1309756 L56.3668876,78.8870732 L56.3668876,85.9602439 Z" id="path-1"></path>
    </defs>
    <g id="Site" stroke="none" stroke-width="1" fill="none" fill-rule="evenodd">
        <g id="Apple-TV-Copy-5" transform="translate(-748.000000, -727.000000)">
            <g id="Group-4" transform="translate(748.000000, 727.000000)">
                <polygon id="Rectangle-Copy-17" fill="#F0572A" points="-3.84067778e-13 -4.32379826e-13 449.956647 0.0778920824 450 250 0.0433533264 249.922108"></polygon>
                <g id="logo/solid" transform="translate(76.000000, 67.000000)">
                    <mask id="mask-2" fill="white">
                        <use xlink:href="#path-1"></use>
                    </mask>
                    <use id="Mask" fill="#F0D92A" fill-rule="nonzero" xlink:href="#path-1"></use>
                    <g id="Group" mask="url(#mask-2)">
                        <g transform="translate(-0.600541, 0.000000)" id="Colour">
                            <rect id="Rectangle-4-Copy-8" fill="#FFFFFF" x="0" y="0" width="297.707143" height="116"></rect>
                        </g>
                    </g>
                </g>
            </g>
        </g>
    </g>
</svg>